/* XPM */
static char *result[] = {
/* columns rows colors chars-per-pixel */
"64 64 139 2 ",
"   c #696969",
".  c #627F7F",
"X  c #6F7F7E",
"o  c #747474",
"O  c #737D7E",
"+  c #7E7E7E",
"@  c #807F7F",
"#  c #63807F",
"$  c #657F80",
"%  c #727F81",
"&  c #7F7F80",
"*  c #807F80",
"=  c #648180",
"-  c #6C8486",
";  c #65888A",
":  c #6E888A",
">  c #738283",
",  c #7D8181",
"<  c #758A89",
"1  c #7B8B8C",
"2  c #799596",
"3  c #76989C",
"4  c #79999C",
"5  c #759DA1",
"6  c #6EA6AB",
"7  c #7EAAAC",
"8  c #70ABB2",
"9  c #6BB1B6",
"0  c #67B6BB",
"q  c #6CB6BD",
"w  c #74B3B7",
"e  c #70B7BD",
"r  c #7CB6BB",
"t  c #78BABF",
"y  c #6BBFC6",
"u  c #78BBC0",
"i  c #69C7CE",
"p  c #65CCD2",
"a  c #6BCCD4",
"s  c #65CFD8",
"d  c #65D4DC",
"f  c #6BD8DF",
"g  c #70D1D7",
"h  c #65DBE4",
"j  c #6CDAE3",
"k  c #63DFEA",
"l  c #73DCE4",
"z  c #79DCE3",
"x  c #5FE4ED",
"c  c #5DEBF4",
"v  c #61E3EB",
"b  c #6BE5EB",
"n  c #62ECF5",
"m  c #6CEEF6",
"M  c #6DEEF8",
"N  c #73EEF6",
"B  c #7BEEF6",
"V  c #73EEF8",
"C  c #78EDF8",
"Z  c #78F0F7",
"A  c #838383",
"S  c #8E8E8E",
"D  c #8F908F",
"F  c #838E91",
"G  c #8E8F91",
"H  c #8B9393",
"J  c #8B9598",
"K  c #899A9B",
"L  c #939393",
"P  c #959897",
"I  c #949798",
"U  c #9D9D9D",
"Y  c #829FA2",
"T  c #82A2A3",
"R  c #86B3B8",
"E  c #89B6B9",
"W  c #93B1B2",
"Q  c #97B7BA",
"!  c #9AB7B8",
"~  c #92B9BC",
"^  c #9DB8BA",
"/  c #A4A4A4",
"(  c #ACACAC",
")  c #AAB7B9",
"_  c #A4BBBD",
"`  c #B3B3B3",
"'  c #B4BBBB",
"]  c #BBBBBB",
"[  c #C0C0BF",
"{  c #9CCFD2",
"}  c #88D0D5",
"|  c #87D8DE",
" . c #B6DCDF",
".. c #8CDEE2",
"X. c #B6DDE1",
"o. c #8DE0E4",
"O. c #80EEF7",
"+. c #8AEFF5",
"@. c #8DF2F6",
"#. c #90F2F6",
"$. c #9FF4F7",
"%. c #96F2FA",
"&. c #9CF3FA",
"*. c #A1EBEF",
"=. c #B3E5E7",
"-. c #BDEEF2",
";. c #A5F3F6",
":. c #ADF3F7",
">. c #A1F5F9",
",. c #ADF5F9",
"<. c #B1F4F7",
"1. c #B4F5F9",
"2. c #BBF7FB",
"3. c #C2C2C2",
"4. c gray79",
"5. c #CADEDF",
"6. c #D3D3D3",
"7. c #DCDCDC",
"8. c #C4EEF2",
"9. c #CBF3F4",
"0. c #C1F7FC",
"q. c #C9F7FA",
"w. c #C2F8FB",
"e. c #CEF8FB",
"r. c #D5F3F4",
"t. c #DAF0F1",
"y. c #D2F7FA",
"u. c #D1F9FB",
"i. c #DCFAFC",
"p. c #E4E4E4",
"a. c #E1EFEF",
"s. c #EBEBEB",
"d. c #F2F2EF",
"f. c #EBF3F3",
"g. c #E2FBFC",
"h. c #EEFDFD",
"j. c #F5F5F5",
"k. c #F7FCFA",
"l. c #FEFFFE",
/* pixels */
"+ + + o o o o o o o o o o o o o o o o o * * + * D D S D S S S L o       o S S S S + + + + o o o o o o o o o o o o o o o o o * + ",
"A + + o o o o o o o o o o o o o o o o o * * @ * D D D S S L S S o       @ S S S S * + * * o o o o o o o o o o o o o o o o o + * ",
"+ A + + + + + S S S S S S S S A S S S S S S S S G G S D S S S S @ o o o A S S S D S S S S S S S S o       o + + + + & + + + o o ",
"+ + + + + + A S S S S S S D S S S S G D D S S S G G S S G S S S o o o o A S S S D S S D S G S S S         o & & + + + & + * o o ",
"+ + + + + A @ S S D S S S D D D S D D D D D S S G S S G S S S S + o o o A S S S S S S D D D S S S         o & + @ @ @ @ A + o o ",
"+ A + + + + A S S S D S S D D D S S D D D S S S G S S S S L S S + o o o * S G S S L D D D D S L S o       o & & * * @ # + + o o ",
"+ A +     o   + * + o & + + + ` 7.p.7.[ + + + + @ @ + o @ @ o @ A A A S @ @ @ @ * A A A A A A A A 3.6.6.4.{ a a g r * + + + + + ",
"+ + +         o o o o o o o o [ l.l.l.6.o o o o o o o o o o o o S S S S @ o o o o * * * * * + * @ p.l.l.l.:.c c c a A + + + + + ",
"@ + o         o o o o o o o o [ l.l.l.6.o o o o o o o o o o o o A S S S A o o o o + + + * * * + * p.l.l.l.:.c c c a & + * * + A ",
"+ + +         o o o o o o o o 3.l.l.l.6.o o o o o o o o o o o o A L L S * o o o o A + * * * * * & p.l.l.l.;.c c c s & + @ + + + ",
"@ + * + o o + o o o + o o + o / 3.3.3.( o     o + o + o ( ` ` ` E t r t 4 + + o o + + + + o + o + ` [ [ [ ~ 0 0 q 6 + o + + + + ",
"+ * A D D D S * * * * * * * * * + + + +         + + + + j.l.l.l.+.c c n q + * + + o o o o o o o o o o o o o o o o o o o o o + A ",
"* & A S D D G * + A + * * * & & + + + o         * + + + j.l.l.l.+.c c c q & + * + o o o o o o o o o o o o o o o o o o o o o + + ",
"+ * A D D D S * + + * + * * * + + + + +         + A + + j.l.l.l.+.c c c q & & + + o o o o o o o o o o o o o o o o o o o o o + + ",
"* + A D D D S A A A A + + + + + + + + o         + + + + 7.p.p.p...d h d 8 O + + + + o + o + o + + o o + o + + + + o + o o + + + ",
"+ * A D S S S S S S D o o o o o o o o o o o o o o o o o o o o o o o o o o o o o o S S D D D D D S S S S S S S D S S L S S A     ",
"* + A D D D D S S S S o o o o o o o o o o o o o o o o o o o o o o o o o o o o o @ S G G D D D D D D S D D S D D S D G G G S     ",
"@ * A D D D S D S S S + o o o o o o o o o o o o o o o o o o o o o o o o o o o o o G G D D D D H D D S S S S S S D S G G S S     ",
"+ + A S S S S S S S S + o o o o o o o + + + + + O O O O o o o o o o o o o o   o @ L I I I I I I I D S S S S D D S S S S S A     ",
"o o o o o + o * A * + + + + + + + + A U j.j.s.a.k v k v X o o o + @ @ o o       A d.d.d.d.8.-.-.8.F o o o + o o o o         + @ ",
"o o o o o o o & + + + + @ + @ + * + & / l.l.l.h.c c c n X o o o + + + + o       A l.k.k.k.q.2.w.0.F o o o o o o o o         @ @ ",
"o o o o o o o + + A A + + @ + @ & & & / l.l.l.h.c c c c X o o o + + + + o       A l.k.k.k.q.w.w.0.F o o o o o o o           @ @ ",
"o o o o o o o & * + @ * @ + @ + , @ & / l.l.l.h.c c c c O o o o @ @ @ + o       A l.k.k.k.q.w.2.0.F o o o o o o o           @ @ ",
"A S A S A S A * + * + 6.7.p.p.5. .X.X.=.1.1.1.;.m m m m d s s d F @ # @ + + o + J r.y.r.q.B C C C Y A S S A S A S S A S A A o   ",
"D D S D D D S * @ @ * s.l.l.l.i.w.0.0.1.&.&.&.%.m N N N c c c c 4 A # A @ @ @ @ K w.w.w.2.n c c n T G S S D D D S S S S G S     ",
"S S G G D D S * @ + * s.l.l.l.i.w.0.0.2.&.&.&.%.N N N N c c c c 5 @ @ @ @ @ @ @ K w.w.w.2.n c c n Y G D S S D D S S S S S S     ",
"S G G G S D S , + + * s.l.l.l.i.w.w.0.1.&.&.%.%.N N N N c c c n 5 @ + @ @ @ @ @ K w.w.w.2.m c c n T G D D S D D S D D S S S     ",
"A A S A S A A + & + + ` ] ] ] ) ^ ^ ^ Q E E R R w w w w 9 9 9 q < + + o o o o o , ^ ^ ^ ! 9 9 9 9 1 A * A A A A * A A S A A o   ",
"* * @ @ @ @ * A + * @ o o o o o o o o o o o o o o o o o o o o o o o o o o         o o o o o o o o o o o o o o o o + + * * @ @ @ ",
"* * @ * @ @ + * A + @ o o o o o o o o o o o o o o o o o o o o o o o o o           o o o o o o o o o o o o o o   o o * + * * @ @ ",
"@ @ @ * @ + + + + + + o o o o o o o o o o o o o o o o o o o o o o o o o           o o o o o o o o o o o o o o o o o + @ @ @ @ @ ",
"@ @ A U U U U 3 3 3 3 O o o o o + + + o o o o o o o o + o o o o S L L L F ; ; = - o + + + o + o + + o + + + + o + + A A A A A A ",
"@ + U l.l.l.h.m c c c .       + D D D A o o o o + A + + + + * + 7.l.l.l.<.c c c f G S S D D S S D S S D S S S S G S S L S S S S ",
"+ @ U l.l.l.h.m c c c .       + D D D S o o o o + + + A + A + + 7.l.l.l.<.c c c f G D G D D D S S D D S S S G S S S S S S S S L ",
"* + U l.l.l.h.m c c x $       + S D S A o o o o + + + + * + + + 7.l.l.l.,.c c c f S G S D D D D G G S G S S S S G S S S S L S S ",
"+ * U k.j.j.a.b x x h .       + S S S A o o o o + A + + A S S A 7.k.k.l.:.c n c j J J H J S S S S S S S S S S S S S L S S S S S ",
"* A O o o o o o o o o o o o o o o o o o o o o o o o o o j.l.l.l.y.0.0.w.>.Z Z Z V c n c k O o o o o o o o o o o o @ G S S S @ @ ",
"@ + @ o o o o o o o o o o o o o o o o o o o o o o o o o j.l.l.l.y.0.0.w.&.Z Z Z V c c c k O o o o o o o o o o o o @ S G S S @ @ ",
"@ + + o o o o o   o o o o o o o o o o o o o o o o o o o j.l.l.l.u.0.w.w.&.Z Z Z V c c c k X o o o o o o o o o o o + S S S S @ @ ",
"+ @ + o o o o o o o o o o o o o o o o o o o o o o o o o j.l.l.l.u.w.w.w.>.Z Z Z N c c c x O o o o o o o o o o o o o D S S S @ @ ",
"@ + + + + + + S S S A o o o o ] s.s.s.6.S S S S S S S S A A A A O O O O + O > > 1 K K K K G S S S S S S S A @ @ @ @ A A * A + + ",
"+ @ * + A + + S D D D + o o o 3.l.l.l.7.L S S S S S S S o o o o         o o o o + S D H S D S S S S S S S S @ # @ @ * @ + @ * + ",
"@ @ + @ @ # A S D D S + o o o [ l.l.l.7.S S S S S S S S o o o o           o o o + D D D D S S S S S L S S A + + @ @ @ + + + + * ",
"@ + @ + @ + + S D S S o o o o [ l.l.l.7.S S S S L S S L o o o o         o o o o o S D D S D S S S S S S L A + + @ @ + @ + + A + ",
"o   o @ @ @ A A A A A + + + + D / U U P A A A A A A A A + + o + @ * A A A S S A A A A A S 6.7.7.7.} i g a 7 S S S S A S S A o   ",
"    o @ @ @ @ @ A + + , + @ + o o o o o @ + + A A + + + + * * @ S D S S S S S S S * * + A j.l.l.l.O.c n c u D S S S S S S S     ",
"      @ @ @ @ @ + * + @ + + @ + o o o + + + & + + + * * + + + + S S D G S S G G S @ @ * S j.l.l.l.O.c c c t S S S S S S S S     ",
"    o @ @ @ @ @ * + @ + + + * o o o o o + A + * + A + + * + + + A D S G S S S S S @ @ + S j.l.l.l.O.c c c t S S S S S S S S     ",
"  o o + + + o + + o + o + + + o o o o o + o + o + o O + + o + + ( ] 3.] ' _ _ _ _ W W W ! 9.u.e.9.C n n n g r r r 7 A A A A o o ",
"@ @ + o o o o o o o o o o o o o o o o o o o o o o o o o o o o o 7.l.l.l.g.w.0.0.2.,.,.,.,.@.@.@.@.C m N N n c c c p o o o o + + ",
"@ @ + o o o o o o o o o o o o o o o o o o o o o o o o o o o o o 7.l.l.l.g.2.0.0.2.1.,.1.,.@.@.@.@.N m m m n c c c p o o o o + + ",
"@ @ o o o o o o o o o o o o o o o o o o o o o o o o o o o o o o 7.l.l.l.g.w.0.0.2.,.,.,.,.@.@.@.@.N m M m n c c c p o o o o + A ",
"+ @ @ o + o o o o o o A A A S 1 : : : > o o o o o o o o o o o o 3.s.s.s.t.9.q.e.w.>.>.>.>.......o.z l f z j j j j y o + + + + A ",
"@ + A D D D S + o o o s.l.l.l.;.c c n i A + A & @ @ + @ o o o o o o o o ] l.l.l.i.n c n v % o o @ # + + # A @ A & A S D S S S S ",
"@ + A D D S S o o o o s.l.l.l.;.c c c a @ + + * @ @ @ + o o o o o o o o ' l.l.l.i.c c c v % o o o @ @ @ @ @ @ @ & A D S H S S S ",
"+ * A H S D S o o o o p.l.l.l.;.c c c a & * * + @ @ + @ o o o o o o o o ' l.l.l.i.c c c v % o o o @ @ @ @ @ @ @ & A D D D S S S ",
"@ # A S S S S o o o o p.j.j.j.*.v v v i * * * * + + + + o o o o o o o o ' j.j.j.r.v v c h % o o o + + + + + + + & A S S S S S S ",
"@ + @ A * A A + + * * A A A A > % % > % o o o o o o o o o o o o + + * + A S S D G K K K J S S S S A + A * o o o o o + o o o & * ",
"@ @ * + + + + * * * @ o o o o o o o o o o o o o o o o o o o o o + + + * @ + @ @ A D D D D S L S S A + + + + o o o o o o o o + + ",
"@ @ + * + * @ + * + + o o o o o o o o o o o o o o o o o o o o o + + + + + @ + @ A D D D S D S S S A + + A o o o o o o o o o + * ",
"@ @ @ @ * * * @ @ @ * o o o o o o o o o o o o o o o o o o o o o @ @ @ @ @ * + * A S S S S S S S S A + + + + o o o o o o o o A + ",
"@ o @ o o o o + o + o o o o o         o A S A S S A A S + + + + @ @ @ @ @ + A + + A A A A o + + + o + o + o o o o o + + + + + + ",
"o o o o o o o o o o o o o o o o       o G G D S S D D D @ + @ @ @ @ @ @ @ @ + + + A A + + o o o o o o o o o o o o o + + @ + & + ",
"o o o o o o o o o o o o o o o         o G G S S D D D D @ @ @ @ @ @ @ @ @ @ # + + + + @ + o o o o o o o o o o o o o + A + + + A "
};
