/* XPM */
static char *result[] = {
/* columns rows colors chars-per-pixel */
"64 64 44 1 ",
"  c gray22",
". c #373838",
"X c #646464",
"o c gray55",
"O c #8D8D8D",
"+ c gray66",
"@ c #A9A9A9",
"# c #B4B4B4",
"$ c #C0C0C0",
"% c #D0D0D0",
"& c gray60",
"* c #989898",
"= c gainsboro",
"- c gray86",
"; c gray44",
": c gray75",
"> c #717171",
", c gray49",
"< c #7C7C7C",
"1 c gray81",
"2 c gray33",
"3 c #555555",
"4 c #C1C1C1",
"5 c gray71",
"6 c #979797",
"7 c #6F6F6F",
"8 c #484848",
"9 c gray39",
"0 c #8B8B8B",
"q c #494949",
"w c gray70",
"e c #7B7B7B",
"r c #656565",
"t c gray17",
"y c #2C2C2C",
"u c gray28",
"i c black",
"p c #010101",
"a c #202020",
"s c #393939",
"d c #2D2D2D",
"f c gray82",
"g c #474848",
"h c #474949",
/* pixels */
"                                                               .",
" XXXXXXXXXXXXXXXXXXXXXXXXXXXXXXXXXXXXXXXXXXXXXXXXXXXXXXXXXXXXXX.",
" XooooooooooooooooooooooooooooooOoOoOoOoOoooooooooooooooooooooX.",
" Xo+++@@+++++++++++++##$$$$$$$$$%$%$%$%$%$$$$$$####++++++&+**oX.",
" Xo+++==@+++++++++++###==$$$$$$%$%$%$%$%==$$$$####++++++$$***oX.",
" Xo++*$=-++++++++#+###+$=-$$$$%$%$%$%$%+$=-$$####++++++*$=#**oX.",
" Xo++;*:o+++++++#+###$>*:,$$$%$%$%$%$%$>*:,$####++++++*;*:<*ooX.",
" Xo++o;,+++++++#+###$$*>,$$$%$%$%$%$%$$*>,$####++++++*+<;<*o*oX.",
" Xo+++++++++#+#+###$$$$$$$$%$%$%$%$%$$$$$$####++++++*+****o*ooX.",
" Xo++++++++#+#+###$$$$$$$$%$%$%$%$1$$$$$$####++++++*+****o*o*oX.",
" Xo+++++++#+#+####$&o<<<<<<<<<<<<<<<<<<<<<,o++++++*+****o*o*ooX.",
" Xo++++++#+#+####$$=+XX22222222222222223X>$++++++*+****o*o*oooX.",
" Xo+++#+#+#+####$$$$=+&*&*&*&*&*&*******&$++$+++*+****o*o*ooooX.",
" Xo++#+#+#+####$$$$$$=%4%$%$%$%$%$$$$$$#$#+#+++*+****o*o*ooo<oX.",
" Xo+#+#+#+####$$$$$$$$==$%$%$%$%$$$$$$#5=+#+++*+****o*o*ooo<ooX.",
" Xo#+#+#+####$$$$$$$$4==%$%$%$%$$$$$$#5=+#+++*+****o*o*ooo<o<oX.",
" Xo+#+#+####$$$$$$$%$%4==%$%$%$$$$$$#5=##+++++****o*o*ooo<o<ooX.",
" Xo#+#+####$o+$$$$%$%$%4==%$%$$$$$$#4=##+++++****o6;*ooo<o<oooX.",
" Xo+#+####$$+<o$$%$%$%4%4==%$$$$$$#4=##+++++*+**o678ooo<o<o<ooX.",
" Xo#+####$$$+o<o%$%$%$==%4==%$$$$#$=$#+++%%*+**o69 8oo<o<o<oooX.",
" Xo+####$$$$=+X<$%$%$+$=-%4=%5$$#$4=#+++o$=#**o698 8o<o<o<ooooX.",
" Xo####$$$$$=%o2<$%$1;*:,$%==%$#$5=#+#++;*:<***782 8<o<o<oooooX.",
" Xo###$$$$$$=%%X2<$%$o>,$$$$==5$5=#+#+++<;<***08XX 8o<o<ooooooX.",
" Xo##$==$$$4=%%*X2<$%$%$%$$$$==5=#+#+++++****09q<X 8<o<O++ooooX.",
" Xo#$+$==$$%=%%%*X2<$%$%$$$$#$==$+#+++++****09q<<X 8o<o+#$+o*oX.",
" Xo$$>*$@$%4==%$%*X2<$%$$$$#$##$$#+++++****09q<<oX 8<o<;*w<*ooX.",
" Xo$$+>,$%$%==%%$%*X2<$$$$#$##$$#+++++*+**09q<<o<X 8o<o<;<*o*oX.",
" Xo$$$:$%$%4==%$%$%*X2<$$#$##::#+++++*+**o98<<o<oX 8<oooo*o*ooX.",
" Xo$#eXXo%$%==%%$%$%*X2<#$##:X;<<<<+*+**678Xoo<o<X 8o<oooo*o*oX.",
" Xo#*2;;r$%4==%$%$%$$<22<##$6 829X<*+**678X<o<o<oX 8<oooo*o*ooX.",
" Xo*o82Xr%$%==%%$%$$$*<22<#$e 8tyX<+**678X<o<o<o<X 8oooo*o*o*oX.",
" Xoo* 82r$%4==%$%$$$$#*<X,$:7 uiy2<***;8X<o<o<o<oX 8ooo*o*o**oX.",
" Xo&#y88r%$%==%%$$$$#$#*,+#+9y8ti8<***Xr<o<o<o<o<X 8oooo*o***oX.",
" Xo51y88r$%4==%$$$$#$##4=#+#9y8yp8;**o+$+oo<o<o<oX 8ooo*o****oX.",
" XO%:y88r%$%==%$$$#$##5=$+#+9au888X*o*o+$+<o<o<ooX 8oo*o*****oX.",
" Xo$1y88r$%$==%$$#$###4=+#++9aayys3o*o*o+$+<o<o<oX 8o*o*o****oX.",
" XO%:y88X%$$==%$#$###4=$##++XXXX;<o*o*oo,#$o<o<ooX 8*o*o*****oX.",
" Xo$wy  3$$$==%#$###4=$##++++*+****o*oo<o+$+o<oooX 8o*o******oX.",
" Xo#*;dd>$$$==%$###4=$##++++*+****o*oo<o<o+$+ooooX 8*o*o*****oX.",
" Xo*oo&$$$$$==%###4=$###+++*+****o*oooo<o<o+$+oooX 8o*o*##***oX.",
" Xooo&==$$$$==%##5==###+++++***6;;oooo<o<o<o+$+ooX 8*o*o#$w**oX.",
" Xoo&+$==$$5==%##4=$##+++++*+*6782;oo<o<o<o<o+$+*X 8o*o;*w<**oX.",
" Xo&$>*:@$#$==%#4=$##+@@++*+*698;82;<o<o<o<ooo+$*< 8*o*<;<***oX.",
" Xo$%+>,$#$#==%4=$##++%%+*+*698>*;8;o<o<o++<oo+$+*28o********oX.",
" XO%$$$$#$##==%=$##+#+$$#+**e8>*oo;8;o<o*#$+ooo+$#X8*********oX.",
" Xo$$$$#$###==f=##+#+;*:<*6;X>*ooo082;o<;*w<oo*o+$*q*********oX.",
" Xo$$$#$####===##+#++o><**;X>*oooo<;82;o<;<oooo*o+:;*********oX.",
" Xo$$#$#####==##+#+++++**09q*oooo<o<;82;o<oooo*o**+<*********oX.",
" Xo$#$######=##+#+#+++**09q*oooo<o<o<;82;oooo*o**************oX.",
" Xo#$#########+#+#+++*+69q*o*oo<o<o<o<;8;ooooo*o**o**********oX.",
" Xo$#########+#+#+++*+*e8ro*oooo<o<o<o<;8;ooo*o**o***********oX.",
" Xo#########+#+#+++*+*0Xro*oooo<o<o,o,o<;q;o*o**o************oX.",
" Xo########+#+#+++*+*or,@5##++++++###55#*<q;o**o*************oX.",
" Xo#######+#+#+++++*+,@%%=%$$$$$$$$%%===%$<q**o**************oX.",
" Xo######+#+#+++++*+&$%=%$$$$$$$$$$$%%%===$+*o*o*************oX.",
" Xo#####+#+#+++++*+*+*+***ooooooooooooo*o*o*o*o**************oX.",
" Xo###%%#+#+++++*+*+*+*++ooooooooooooo*O##*o*o**********##***oX.",
" Xo##+$=1#+++++*+*+*+*+#$+ooooooooooooo+#$+*o**********+#$w**oX.",
" Xo##;*:,+++++*+*+*+**;*w<oooooooooooo*;*w<o*o*********;*w<**oX.",
" Xo#+o>,+++++*+*+*+***<;<oooooooooooo*o<;<o*o**********<;<***oX.",
" Xo+#+#+++++*+*+*+***ooooooooooooooo*o*o*o*o*****************oX.",
" Xooooooooooooooooooooooooooooooooooooooooooooooooooooooooooo0X.",
"8XXXXXXXXXXXXXXXXXXXXXXXXXXXXXXXXXXXXXXXXXXXXXXXXXXXXXXXXXXXXX9.",
"gggggggggggggggggggggggggggggggggggggggggggggggggggggggggggggggh"
};
