/* XPM */
static char *result[] = {
/* columns rows colors chars-per-pixel */
"64 64 114 2 ",
"   c #2C2C2C",
".  c #2B2C2C",
"X  c gray66",
"o  c gray33",
"O  c gray22",
"+  c #484848",
"@  c #989898",
"#  c #D0D0D0",
"$  c gray55",
"%  c gainsboro",
"&  c black",
"*  c #C0C0C0",
"=  c gray44",
"-  c #ECECEC",
";  c #646464",
":  c #7C7C7C",
">  c #B4B4B4",
",  c #202020",
"<  c #373737",
"1  c #A9A9A9",
"2  c gray99",
"3  c gray12",
"4  c #5C4020",
"5  c #885830",
"6  c #010000",
"7  c #FCA95C",
"8  c #FCFCB8",
"9  c #FCFCB7",
"0  c #FCF400",
"q  c #B45400",
"w  c #81512C",
"e  c #FCF420",
"r  c #FCA85C",
"t  c #7F4F2B",
"y  c #CC6000",
"u  c #010100",
"i  c #FC983F",
"p  c #FC7800",
"a  c #403018",
"s  c #80502C",
"d  c #FCFCD8",
"f  c #9C4C00",
"g  c #80502B",
"h  c #28200C",
"j  c #FCFC9C",
"k  c #FC9840",
"l  c #E46D00",
"z  c #FCA85B",
"x  c #E46C00",
"c  c #382C14",
"v  c #28200B",
"b  c #6C4824",
"n  c #FCF85C",
"m  c #9D4D00",
"M  c #81502C",
"N  c #FBA85B",
"B  c #FCFCB9",
"V  c #FCF85B",
"C  c #FCFCFB",
"Z  c #6C4823",
"A  c #483818",
"S  c #5B3F1F",
"D  c #CD6000",
"F  c #FC8820",
"G  c #744C28",
"H  c #403017",
"J  c #3F2F17",
"K  c #FCB080",
"L  c #372B13",
"P  c #A86840",
"I  c #BC7848",
"U  c #5D4120",
"Y  c #FCF401",
"T  c #5D4121",
"R  c gray19",
"E  c #9B4B00",
"W  c #FCF300",
"Q  c #FC4040",
"!  c #343434",
"~  c #FC7D7D",
"^  c #FC7C7C",
"/  c #BC0000",
"(  c #FC3F3F",
")  c #A40000",
"_  c #640000",
"`  c #630000",
"'  c #650000",
"]  c #FC2020",
"[  c #FCB8B8",
"{  c gray70",
"}  c #FC9C9C",
"|  c #281F0B",
" . c #E00000",
".. c #484747",
"X. c #FC5C5C",
"o. c #FC0000",
"O. c #980000",
"+. c #FCD8D8",
"@. c #010101",
"#. c #B00000",
"$. c gray60",
"%. c #271F0B",
"&. c #FC1F1F",
"*. c #A50000",
"=. c gray28",
"-. c #494848",
";. c #A30000",
":. c #E10000",
">. c #535353",
",. c #FB403F",
"<. c #FCFC9B",
"1. c #5D411F",
"2. c #8B8B8B",
"3. c #474848",
/* pixels */
"                                                                                                                              . ",
"X X X X X X X X X X o O o o o o + + + + +   @ # # # # # # # # # # # # # # # # # X $   O O O O O + o o o o o % % % % % % % % @ & ",
"* % % % % # # * X $ o O o o + + = * - - * o @ * - - - - - - - - - - - - - - - # $ ;   - - - # = + O o o o o % - * X $ X $ X =   ",
"% @ * @ X X $ = o O O o + + & $ - - * * X $ o X # - * * * * * * * * * * * * * @ ;   # - - - - # = + O O o o o X X $ @ @ X @ =   ",
"% * @ X @ $ o O O o + $ $ @   @ # * * * * $ o $ # - * X X X X X X X X X X X X $ ; : - * * * # > $   @ @ O O o ; $ $ X X $ : =   ",
"% @ X @ : o O O o + X # - - *   o $ * X X $ = o $ # > X X X X X X X X X X X @ ;   # * X X X * o   @ - # : o O o = $ @ : X X =   ",
"% X $ : + O O o + # - - # # % $   o $ X X X $ o $ * * X X X X X X X X X X X $ ; : - X X X X o   @ - # X @ : o O o = $ X X X =   ",
"% X $ = O O o + # - # # X X X % $   o $ X X $ = o $ * $ $ $ $ $ $ $ $ $ $ $ ;   # * X X X o   @ - # X X X @ : o O + = $ X X =   ",
"# X = + O o + X - # * X X X X X # $   o $ $ $ = o o o o o o o o o o o o o o o   > > X X o   @ - # X X X X X @ ; o O + o = = =   ",
"* $ = O + + o o : % X X X X X X X # $   o o o o o                       ,     o o $ > =   @ - # X X X X X X X : o o O + o       ",
"$ = O + + > - @ o : X * X X X X X $ * $   o O < & & & & & & & & & & & & & & & & O O o   @ - # X X X X X X X : o   O O   + + O O ",
"o O O + > - # - @   o : X X X X $ : ; o o & & & & & & & & & & & & & & & & & & & & & & o o = # X X X X X : o   O @ @ = O   O + + ",
"o + + $ - # # # - *   o ; : $ $ : O O O < & & & & & & & & & & & & & & & & & & & & & , O O O $ # X X : ; O   X - # # > = O   O o ",
"o o + > # * X X # - * =   o ; ; o O < & & & & & & & & & & & & & & & & & & & & & & & , , , O O $ # ; o   = X - # X X X : O O   o ",
"o o = - # X X X X X - - :     o < & & & & & & & & & & & & & & & & & & & & & & & & & & , , , , O o     1 - - * X X X X > = O   + ",
"o o $ - # X X X X X X # 2 :   & & & & & & & & & & & & & & & & & & & & & & & & & & & & & & , , 3 &   X 2 % * X X X X X X = O   O ",
"o + > - # X X X X X X $ : o < & & & & & & & & & & & & & & & & & & & & & & & & & 4 5 & & & & & & , o $ - - * X X X X X X = O   O ",
"o + > # # X X X X X X $ o < & & & & & 6 7 8 9 0 q & & & & w e 8 2 r t & & & & q 0 8 y & & & , , , O o X - - * X X X X X : O ,   ",
"o + > $ $ : $ $ $ $ $ : o & & & & & u 0 8 i p 4 a & & & s e d 0 f 4 & g & & & a r r 8 r a & & , , , o = - # * : : o o o o o ,   ",
"o O O       o o o o = o O & & & & & 0 8 i p h h a & & & f j j 8 r j 9 0 s & & a h a r 8 r a & , , , O = o = o o o             , ",
"+ > - - > $ :         O O & & & & u 8 k p h h h a a & & f l 2 z x 4 4 a t & & s h a a e e a & & , , O , O       = * - - # $   , ",
"+ > - # # # - - % @ o O < & & & & 0 8 k a h h h s s & & & e 9 x q 4 & & & & & s h a a r 8 r c & & & & , O $ # - - # * > > =   , ",
"+ > - * X X X X X * : O & & & & & 8 0 p h h h h y a a & & e 0 r r r q v & & h q h a b q e 8 c & &   O o = * - * * X X X X o   , ",
"+ > - * X X X X X X = O & & & & & 8 z f h h a a f n 4 4 m n d d j j r q h & M N h b b q e 8 c & ,   O o = * - * X X X X $ o   , ",
"+ > - * X X X X X $ ; O & & & & & 8 y f h h h h s r n B 2 d d d d d n q 4 x N h a b b q e 8 c & ,   O o = * - * X X X X $ o   , ",
"+ > - * X X X X X $ o O & & & & & 8 y s h h h h h s r 2 2 8 8 8 8 8 V q 4 & h a a b b q e 8 c & ,   O o = * - * $ $ $ $ $ o   , ",
"+ > # X $ $ $ $ $ $ o O & & & & & 8 y b h c h h h h 4 r C 0 n n n n 0 q 4 & h a a b Z q e 8 c & ,   O o = @ = o o o o o o o   , ",
"+ X : o o o o o o o o < & & & & & 8 y b h c h h h h h f n 0 n n n n r 4 a h h a a Z f q e 8 c & & & & & & & & & & & & & & &   , ",
"+ O O     & & & & & & & & & & & & 8 y b h A S & & h h f V 0 r r r z q 5 a & & & a f f D e 8 c & ,   O o = * - - - - - - # $   , ",
"+ > - - - - - - - # = O & & & & & 8 y b a 4 & h h h h f 0 r y y y y q 5 a & h a h v f F e 8 c & ,   O o = * - * * * * * X =   , ",
"+ > - * * * * * * $ o O & & & & & 8 r f a G h h h h h f e z f f f q y q a & h H f f D r e 8 c & ,   O o = * - * X X X X X o   , ",
"+ > - * X X X X X $ o O & & & & & 0 8 f h 5 a a J & v f 0 y 4 5 5 5 D r a & & & f D F 7 e K c & ,   O o : * - * X X X X $ o   , ",
"+ > - * X X X X X $ o O & & & & & & 8 f h 5 4 A & & & f z y a 4 4 s r z a & & & & F r e 8 G L & ,   O o $ * - * X X X X $ o   , ",
"+ > - * X X X X X $ o O & & & & & & 8 r 4 4 P h & & & 5 e y a a h g 0 0 a & & & & r 7 e 8 a & , ,   O o @ * - * X X X X $ o   , ",
"+ > - * X X X X X $ o O & & & & & & 0 9 f h 4 h & & & 5 e y a h h h 0 n a & & & & 7 e e I J & , ,   O o @ * - * X $ $ $ $ o   , ",
"+ > - X $ $ $ $ $ $ o O & & & & & & & 0 y 4 4 a & & & 4 j y h h h h 0 8 J & & & & e e 9 a & & , , , O o ; : = o o o o o o o   , ",
"+ X : o o o o o o o o < & & & & & & & 0 z f a a & & & U d y h h h U Y 8 & & & & & e 9 q J & & & & & & & & & & & & & & & & &   , ",
"+ O O     & & & & & & & & & & & & & & Z 0 f 4 S & & m 8 8 8 4 4 T 8 2 8 9 f & & & 9 q J & ,     R R + = @ # - - - - - - # $   , ",
"+ > - - - - - - - # = O & & & & & & & & & f E & & u 8 U 8 2 C 0 C 0 Y 8 U W & & & q J & & ,     R R + = @ * - * * * * * * =   , ",
"+ > - * * * * * * X o O & & & & & & & & & & & & u Y 2 2 Q 2 Q Q Q Q 2 Q 2 Q & & & J & & , ,     R ! + = @ * - * X X X X X o   , ",
"+ > - * X X X X X $ o O & & & & & & & & & & 6 ~ 2 8 ^ Q Q Q Q Q Q Q Q Q Q Q / & & & & & , ,     ! ! o = @ * - * X X X X $ o   , ",
"+ > - * X X X X X $ o O & & & & & & & & & 6 ~ 2 ^ Q ( ) _ _ _ _ _ _ _ Q Q Q Q / & & & & , ,   R ! O o = @ * - * X X X X $ o   , ",
"+ > - * X X X X X $ o O & & & & & & & & 6 ^ 2 ^ ( ) _ _ ` & & & & & _ _ ' Q Q Q / & & & , ,   R ! + o = @ * - * X X X X $ o   , ",
"+ > - X $ $ $ $ $ $ o O & & & & & & & & ] [ ^ Q ) 2 2 { & & 2 2 2 2 2 2 2 > Q Q Q _ & & , ,   R O + o = @ * - * X X X X $ o   , ",
"+ X : o o o o o o o o < & & & & & & & 6 } [ Q ( _ 2 # + & & 2 # # # # # # + / Q Q / | & & ,   R O + o = @ * - * X $ $ $ $ o   , ",
"+ O O     & & & & & & & & & & & & & & ] 2 ^ Q  ._ 2 # + & & 2 # + + + + + .._ X.Q o._ & & & , , , , O o ; : = o o o o o o o   , ",
"+ > - - - - - - - # = O & & & & & & & ] 2 Q ( O._ 2 # + & & 2 # + & & & & & _ ^ Q Q O.h & & & & & & & & & & & & & & & & & &   , ",
"+ > - * * * * * * X o O & & & & & & & X.+.Q  ._ & 2 # + & @.2 # + & & & & & & ^ Q Q #.h & ,   R ! O o = @ * - - - - - - # $   , ",
"+ > - * X X X X X $ o O & & & & & & & X.+.Q  ._ & 2 # > 2 2 2 # $.2 2 2 2 { & } Q Q #.h & ,   R ! O + = @ * - * * * * * X =   , ",
"+ > - X $ $ $ $ $ $ o O & & & & & & & X.[ Q  ._ & 2 # # # # # # # # # # # + & } Q Q #.h & ,   R ! O + = @ * - * X X X X X o   , ",
"+ X : o o o o o o o o < & & & & & & & o.} Q  ._ & : + + + + @ # + + + @ # + & } Q Q #.h & ,   R ! O + = @ * - * X $ $ $ $ o   , ",
"+ O O   & & & & & & & & & & & & & & & o.^ Q  ._ & & & & & & 2 # + & & 2 # + & } Q Q #.%.& , , , , , O o ; : = o o o o o o o   , ",
"+ > - - - - - - - # = O & & & & & & & ) ^ Q Q _ _ & & & & @.2 # + & & 2 # + ' X.Q ( O.& & & & & & & & & & & & & & & & & & &   , ",
"+ > - * * * * * * X o O & & & & & & & & ] ^ Q ) 4 2 2 2 2 2 2 # + & & 2 # + o.o.Q &._ & , ,   R ! O + = @ * - - - - - - # $   , ",
"+ > - * X X X X X $ o O & & & & & & & & ) Q Q  .4 2 # # # # # # + & & 2 # + *.Q Q #.` & , ,   R ! O + = @ * - * * * * * X =   , ",
"+ > - * X X X X X $ o O & & & & & & & & & ) Q Q ) : + + + + + + =.& & : + -.Q Q ( ` & & , ,   R ! O + = @ * - * X X X X $ o   , ",
"+ > - X $ $ $ $ $ $ o O & & & & & & & & & & Q Q Q ) _ _ _ & & & & & _ _ *.Q Q ( ;.& & & , ,   R ! O + = @ * - * X X X X $ o   , ",
"+ X : o o o o o o o o < & & & & & & & & h a & Q Q Q X.X.Q Q Q Q Q Q :.[ } Q ( ;.& a h & , ,   R ! O o = @ * - X $ $ $ $ $ o   , ",
"+ O O   & & & & & & & & & & & & & & & h a 4 4 & Q Q Q ^ ^ } } [ [ [ } Q Q ( ;.& 4 4 a h , , , , , , O o ; : = o o o o o o >.  , ",
"+ # - - - - - - - # = O & & & & & & & h a 4 4 4 & 6 Q Q Q Q Q Q Q Q Q Q ,.& 4 4 4 4 a h & & & & & & & & & & & & & & & & & &   , ",
"+ # - X X X X X X X o O & & & 2 2 2 2 2 8 8 8 j <.0 4 4 4 4 4 4 4 4 4 4 1.0 j j d d d d d d > & ! O o = @ # - - - - - - # $   , ",
"+ # - X $ $ $ $ $ $ o O & & & 2 0 0 0 0 0 0 0 0 0 0 0 0 0 0 0 0 0 0 0 0 0 0 0 0 0 0 0 0 0 0 2.& ! O o = @ # - * X X $ $ $ =   , ",
"+ X : o o o o o o o o o &   O $ o o o o o o o o o o o o o o o o o o o o o o o o o o o o o o o   , , O o ; : = o o o o o o o   , ",
"+ + + + + + + + + + + + + O o ; = = = = = = = = = = = = = = = = = = = = = = = = = = = = = = ; O   , + + + + + + + + + + + + + 3."
};
