/* XPM */
static char *result[] = {
/* columns rows colors chars-per-pixel */
"64 64 135 2 ",
"   c #2C2C2C",
".  c #2B2C2C",
"X  c gray33",
"o  c #202020",
"O  c #484848",
"+  c #535454",
"@  c #555555",
"#  c gainsboro",
"$  c gray66",
"%  c #6F6F6F",
"&  c #C0C0C0",
"*  c #D0D0D0",
"=  c #7C7C7C",
"-  c gray22",
";  c gray44",
":  c #A9A9A9",
">  c gray55",
",  c #646464",
"<  c #717171",
"1  c #B4B4B4",
"2  c #979898",
"3  c #989898",
"4  c gray13",
"5  c #DBDCDC",
"6  c #535353",
"7  c #A7A8A8",
"8  c #8B8C8C",
"9  c gray28",
"0  c gray39",
"q  c #999898",
"w  c #DC8854",
"e  c #C87C4C",
"r  c #FC9C60",
"t  c #FCB080",
"y  c #FBB080",
"u  c #717070",
"i  c #BC7848",
"p  c #373838",
"a  c #DD8854",
"s  c #FCB890",
"d  c #FCBC9C",
"f  c #D08050",
"g  c #BB7848",
"h  c #1F2020",
"j  c #FCC4A4",
"k  c #CF7F50",
"l  c #EF935C",
"z  c #A86840",
"x  c #BD7848",
"c  c #FCA470",
"v  c #B47044",
"b  c #9C6038",
"n  c #885830",
"m  c #7F502C",
"M  c #979797",
"N  c #382C14",
"B  c #BD7948",
"V  c #F0945C",
"C  c #C1C1C1",
"Z  c #ECECEC",
"A  c #EBECEC",
"S  c #C77C4C",
"D  c #494848",
"F  c #F1945C",
"G  c #905C34",
"H  c #5B4020",
"J  c #FCD4BC",
"K  c #E98C58",
"L  c #FB9B5F",
"P  c #5C4020",
"I  c #A96840",
"U  c #EF935B",
"Y  c #B3B4B4",
"T  c #E88C58",
"R  c #81502C",
"E  c #FBA36F",
"W  c #C97C4C",
"Q  c #BB7847",
"!  c #5D4020",
"~  c #D0804F",
"^  c #744C28",
"/  c #989797",
"(  c #9D6038",
")  c #494949",
"_  c #D18050",
"`  c #B57044",
"'  c #5C4021",
"]  c #80502C",
"[  c #989897",
"{  c #543C1C",
"}  c #8D8C8C",
"|  c #FCA46F",
" . c #A0643C",
".. c #8D8D8D",
"X. c #A7A7A7",
"o. c gray71",
"O. c #70706F",
"+. c #754C28",
"@. c #744C29",
"#. c #8C8C8B",
"$. c #483819",
"%. c #DCDBDB",
"&. c #483818",
"*. c #493818",
"=. c #D40100",
"-. c #D07F4F",
";. c #2D2D2D",
":. c gray86",
">. c #D40000",
",. c #5C3F1F",
"<. c #7C0101",
"1. c #C0BFBF",
"2. c #A80000",
"3. c #980000",
"4. c #88572F",
"5. c #7C0000",
"6. c #A50000",
"7. c #FC0101",
"8. c #880000",
"9. c #9C5F37",
"0. c #990000",
"q. c #D40101",
"w. c #7C7B7B",
"e. c #700000",
"r. c #553B1B",
"t. c #640000",
"y. c #744C27",
"u. c #A1643C",
"i. c #4C0000",
"p. c #B37043",
"a. c #543B1B",
"s. c #7B7B7B",
"d. c gray75",
"f. c #6C4824",
"g. c #6C4723",
/* pixels */
"                                                                                                                              . ",
"X X X X X X X X X X X X X X X X X X X o o o o o X X X X O O O O O O O O X X X X X X X X X X X X X X X X X X X X X X X X X X X + ",
"@ # # # # # # # # # # # # # # # # # # # # $ % o X O $ & # # # # # # # * $ = O - X X ; : # # # & $ > > ; , X O O O O O O O O O + ",
"@ # # # & & & & & & & = = = = = = = = = = = = = = ; ; ; ; ; ; ; ; ; ; ; ; ; ; ; ; ; ; ; ; ; ; ; ; ; ; ; ; < # # # # # * & & 1 2 ",
"@ # # & > 3 $ $ $ $ $ = O O O O O O O O - - - - - - - - - - - - - - - - - - o o o o o o o o o o o o o o o 4 # # # # # # # # # 5 ",
"@ # & $ $ $ = > $ $ 3 = O 3 3 3 3 3 3 3 3 3 3 3 3 3 3 3 3 3 3 3 3 3 3 3 3 3 3 3 3 3 3 3 3 3 3 3 3 3 3 3 6 o ; $ $ > > $ $ > > 7 ",
"X 1 & > $ > $ = $ > 3 = O 3 3 3 3 3 3 3 3 3 3 3 3 3 3 3 3 3 3 3 3 3 3 3 3 3 3 3 3 3 3 3 3 3 3 3 3 3 3 3 6 o ; = > $ > = > $ > 8 ",
"X 1 & 3 $ $ > $ > > > = O 3 3 3 3 3 3 3 3 3 3 3 3 3 3 3 3 3 3 3 3 3 3 3 3 3 3 3 3 3 3 3 3 3 3 3 3 3 3 3 6 o ; 3 $ > $ 3 $ > $ 2 ",
"X > & > 3 > $ > $ 3 $ = O 3 3 3 3 3 3 3 3 3 3 3 3 3 = , O O O O O O O = > 3 3 3 3 3 3 3 3 3 3 3 3 3 3 3 6 o ; 3 3 $ $ 3 3 $ = 2 ",
"X > & > > 3 > > > > > = O 3 3 3 3 3 3 3 3 3 3 3 3 X O 9 o o o o o o o o o O O = 3 3 3 3 3 3 3 3 3 3 3 3 0 o ; $ > $ > $ > $ > 2 ",
"o ; & $ > 3 $ $ 3 > 3 = O 3 3 3 3 3 3 3 3 3 3 3 X O o o - - X - - - - - o o o O 3 3 3 3 3 3 3 3 3 3 3 3 0 o ; > 3 3 3 > 3 3 3 8 ",
"o @ & > 3 > $ > > 3 $ = O 3 3 3 3 3 3 3 3 3 q w e ; - - - X X > = X - O X - - o 4 3 3 3 3 3 3 3 3 3 3 3 0 o ; > ; ; , , X X X + ",
"o @ & = $ $ > 3 > 3 $ = O 3 3 3 3 3 3 3 3 3 q r t t y u e i ; = > 0   , ; , -   o O 3 3 3 3 3 3 3 3 3 3 0 o X X X X X X X O O p ",
"- X = X X X X X , ; = = - 3 3 3 3 3 3 3 3 q a t s s d y u f g X X -   O X O O   o o , 3 3 3 3 3 3 3 3 3 0 o O O - -   o o o o h ",
"- o o o o - O O X X X = - 3 3 3 3 3 3 3 3 q r t s s j y u k - - - -   - - - -   o o O 3 3 3 3 3 3 3 3 3 0 o o o o o o o o o o h ",
"X - o o o o o o       = - 3 3 3 3 3 3 3 q r t t s j t t t l - - - -   - - - -   o o   3 3 3 3 3 3 3 3 3 0 o o     - - - - - O + ",
"> = ; X O - - o o o o = - 3 3 3 3 3 3 3 3 e z x c j t t t t v b b n m - - -   o o o   3 3 3 3 3 3 3 3 3 0 o X X X X X X ; = $ 7 ",
"# # # & & $ > = X X X = - 3 3 3 3 3 3 3 3 M N N n B j t t s c V z z z z m - o o o     3 3 3 3 3 3 3 3 3 % o % - X X = 3 C Z Z A ",
"# # # # # # # # # # # = - 3 3 3 3 3 3 3 q s S D x c F t j c V V a V V z G H o o o   O 3 3 3 3 3 3 3 3 3 % o X - X > & # # 1 & 2 ",
"$ $ & & * # # # # # # = - 3 3 3 3 3 3 q s J t a c t t t c V V K L P I U P H o o   O ; 3 3 3 3 3 3 3 3 3 % o X - X : # * & & 3 Y ",
"> $ $ $ 3 > & & $ & $ = - 3 3 3 3 3 q j J j c r a s t c V V T a c f R E P H o o   ; 3 3 3 3 3 3 3 3 3 3 % o X - @ & # 1 $ 3 3 7 ",
"$ > > > > $ 3 > 3 > $ = - 3 3 3 3 3 q T i i i W r a r r r T w w f I V Q P H o   O 3 3 3 3 3 3 3 3 3 3 3 % o X - @ & # & > 3 > 8 ",
"> > 3 > 3 $ $ $ $ 3 > = - 3 3 3 3 3 3 3 M o ! c a c r r V T w W r c ~ ^ P H o   ; 3 3 3 3 3 3 3 3 3 3 3 % o 6 o @ & # $ > > > 2 ",
"> $ $ > $ 3 $ > 3 $ $ = - 3 3 3 3 3 3 3 / P ( t c F c V T e i z f n ^ ^ ^ P P O 3 3 3 3 3 3 3 3 3 3 3 3 % o 6 o ) # # > 3 $ $ 2 ",
"$ > > $ > 3 > > > > $ = - 3 3 3 3 3 3 3 q s r r t c V V e z z b i w G G ^ P P ; 3 3 3 3 3 3 3 3 3 3 3 3 % o 6 o ) # # $ > 3 > 8 ",
"> $ > > 3 > $ 3 > $ 3 = - 3 3 3 3 3 3 3 3 _ c F t c r T e z b b ` c w i n P ' 3 3 3 3 3 3 3 3 3 3 3 3 3 % o 6 o ) # # > $ 3 3 2 ",
"X X X X ; ; > > > > > = - 3 3 3 3 3 3 3 q c s c a r w i b G b ` c c c V i z ^ ^ 3 3 3 3 3 3 3 3 3 3 3 3 % o 6 o ) # $ = X X X + ",
"X X X X X X X X X X X = - 3 3 3 3 3 3 3 q V c w i z b G G b ` a c c i i G ] ^ ^ = > 3 3 3 3 3 3 3 3 3 3 % o - o O $ = X X X X + ",
"o o o o o - - - - - - = - 3 3 3 3 3 3 3 3 3 3 [ b n n n b v a c i i G G G ] ] { ^ ^ ; > 3 3 3 3 3 3 3 3 % o o o o o o o o o o h ",
"o o o o o o o o o o o = - 3 3 3 3 3 3 3 3 3 3 3 3 [ v b v ` c i G G b G n ^ { ] ] ^ ^ ^ ; > 3 3 3 3 3 3 % o - - o o o o o o o h ",
"X X O - -       o o o ; - 3 3 3 3 3 3 3 3 3 3 3 } f v v _ | G G b b b ^ { ]  . . .G G ] n ^ ; > 3 3 3 3 % o X X X X X X X - X + ",
"X X X X O O O O O O O % o 3 3 3 3 3 3 3 3 3 > } f i f f v b b v v ^ { ]  .v v v v v v v b b n ^ ; 3 3 3 % o = ..# # # & X.  - + ",
"X X ; $ o.# # # # # # % o 3 3 3 3 3 3 3 3 > u f f i f e  .v v n { ]  .v v v v v v v v v v v b n ^ = 3 3 % o > o.# # & $ %     + ",
"X O : # # # # # # # # % o 3 3 3 3 3 3 3 > O.+.f  .f f e e v ^ { b v v v v z b ] b b v v v v v b ] ^ = 3 % o ; $ > $ > ; 6 o   + ",
"X ) o.# 1 $ $ $ > $ > % o 3 3 3 3 3 3 3 O.] +.f  .f f e v ^ ^  .v v v v z  .] ] b b b b n n n n n ] @.3 % o ; 3 > > > X - o o + ",
"X ) # # > $ > $ $ $ > % o 3 3 3 3 3 3 #.] ] +.f ]  .f v ^ ^ v v v v v v  .G ^ ] b b n b b b n n n n @.3 % o ; > $ > > X - o o + ",
"X ) # # $ 3 3 > 3 > $ % o 3 3 3 3 3 3 O.G G ^ b ^  .^ {  .v v v v v v z G ] P ! v v v v v b b n ] ] ' 3 % o ; $ 3 $ 3 X - o o + ",
"X ) # # > 3 > $ > 3 > % o 3 3 3 3 3 [ b G G ^ ] ^  . .G v v v v v v v  .] P ! v v f v v v b v b ^ ^ $.3 % o ; 3 3 > 3 X - o o + ",
"X ) # $ > > $ > > > > % o 3 3 3 3 3 #.b G G P ^ n  . .v v v v v v v z z ] ! v v f v v f b G v b ^ P $.3 % o ; > 3 3 $ X - o o + ",
"X O $ ; ; ; > > 3 > $ % o 3 3 3 3 3 O.b G G ^ ^  . .i i e e v v v v b ] P ! v f v v f v b G v n ^ P $.3 % o ; $ 3 > X.X - o o + ",
"X O X X X O ; $ $ > > % o 3 3 3 3 [  .b G G ^ n  .i i e e i i i ^ b n P P b b v v v f b G  .v n ^ P $.3 % o ; > $ $ > X - o o + ",
"X O - - o o O X X X X % o 3 3 3 3 #. . .G ^ ^  . .i i e i i i ^ b n n ' 3 # %.( f f v  .G v v ] P &.X 3 % o ; $ > 3 > X - o o + ",
"X X X X - o o - - - - % o 3 3 3 3 ;  .G G G ^  . .G ^ &.*.i i ^ n P ' M     @ %.=.-.^ b G v v ^ P &.; 3 % o ; > 3 > X.X - o o + ",
"X X X X X - o o o o o % o 3 3 3 #.b b G G ^ n  .v i Q &.&.^ ^ n P M ;.:.;.* # # %.>.^ G b v v ^ P &.= 3 % o ; 3 > > ; X - o o + ",
"X X X X X X - -       % o 3 3 3 ; z z z G ^  . .i i e ] z n n ,.<./ X         @ 1.2.3.3.G v v ^ &.' 3 3 % o X X X X X X - o o + ",
"X X O O X X X X X X X % o 3 3 [ b b z z ^ ^  .v i i e G z n 4.5.6.7.# # :.;.:.;./ 2.3.8.8.G n ^ &.' 3 3 % o - - - - - - - o o + ",
"X 3 & & & & 1 3 ; , X % o 3 3 3 v z G G ^ ]  .v i i i z n P 9.3.0.q.M     @ # 3 w.3.8.8.5.e.^ &.P ' 3 3 % o o o o o o o o o - + ",
"@ & # # # # # # # # # % o 3 3 [ v G z G  .G  .v i i i n ! T i e ] r.q.3 & & 3 w.3.8.8.5.e.t.y.&.P ' 3 3 % o o o o o o o o - - + ",
"@ & # # * * * * * * * % o 3 q w e v G ^ v b b n n n x T e u.T e e ] r.>.>.2.3.3.8.8.5.e.t.t.i.P P @.3 3 % o             - - X + ",
"@ & # * 3 > > > > $ $ % o 3 q w f e v v v b b b b ( T T T  .u.T i v p.{ a.3.3.8.8.5.e.t.t.i.P P ^ @.3 3 % o X O O O O O O O O h ",
"@ & * 3 > > 3 $ $ $ 3 % o 3 3 q w f f w w b b b e W T T e T x T T v b b { a.8.8.5.e.t.t.i.P P P ^ n 3 3 % o > > $ $ $ $ $ $ s.h ",
"@ & * > 3 $ > > > 3 > % o 3 3 3 q w w q w w v v x T T i i e T T T e b b ^ a.8.5.e.t.t.i.P P P n n b 3 3 % o > 1 # # # # # d.6 h ",
"@ & * $ > $ $ > $ 3 > % o 3 3 3 3 3 3 3 3 3 e e ` T i z z b b e e e b n f.{ a.e.t.i.P P P P ^ n b v 3 3 % o ; $ $ > > $ > > 6 h ",
"@ & * $ $ 3 > 3 > > > % o 3 3 3 3 3 3 3 3 q V e e i v v z z ] ] ] ] n ^ ^ ^ g.t.i.P P ^ ^ n G b v e 3 3 % o ; $ > $ > > $ > 6 h ",
"@ & * > 3 > $ > $ > $ % o 3 3 3 3 3 3 3 3 3 q V e e e e e i v v z n n n n n 4.i.P ^ ^ n G b v e W r 3 3 % o ; > > $ > 3 > X.6 h ",
"@ & * $ > 3 > > > 3 > % o 3 3 3 3 3 3 3 3 3 3 3 q V w w w w w w w e e z b b b ^ n n G b v e W r r 3 3 3 % o ; > 3 > $ > $ > 6 h ",
"@ & * > $ > 3 > > > > % o 3 3 3 3 3 3 3 3 3 3 3 3 3 3 q V V V V V V V V V f f f f f e W r r 3 3 3 3 3 3 % o ; $ > 3 > 3 3 , 6 h ",
"@ & * > > 3 > > > > > % o 3 3 3 3 3 3 3 3 3 3 3 3 3 3 3 q r r r 3 3 3 3 q T T T T T T T 3 3 3 3 3 3 3 3 % o , , , , , , , X 6 h ",
"@ & * $ > > > > > $ > % o 3 3 3 3 3 3 3 3 3 3 3 3 3 3 3 3 3 3 3 3 3 3 3 3 3 3 3 3 3 3 3 3 3 3 3 3 3 3 3 % o X X X X X X X X - h ",
"@ & * > > > $ > 3 > $ % o X X X X X , , , , , , , ; ; ; ; ; ; ; ; ; ; ; ; ; ; ; ; ; ; ; ; ; ; ; ; ; ; ; % o o o o o o o o o o h ",
"X 3 1 , , , , , , , , % o o o o o o o o o o o o o o o o o o o o o o o o o o o o o o o o o o o o o o o o o o o o o o o o o o o h ",
"X X ; O O O O - - - - - - - -   o     o o o o o o o o o o o o o o o o o o o o o o o o         - - - - - - o - - - - - - - - - + ",
"6 o o o o o o o o o o o o o o o o X X O -                                           - X X X X X X X X X X X X X X X X X X X X + ",
"- - - - - - - - - - - - - - - - - - - - - - - - - - - - - - - - - - - - - - - - - - - - - - - - - - - - - - - - - - - - - - - p "
};
