/* XPM */
static char *result[] = {
/* columns rows colors chars-per-pixel */
"64 64 163 2 ",
"   c #696969",
".  c #7D786F",
"X  c #747474",
"o  c #7B7A73",
"O  c #7E7E7E",
"+  c #7A7771",
"@  c #8D7C5B",
"#  c #8A7F67",
"$  c #837B6B",
"%  c #807F7F",
"&  c #7F8174",
"*  c #D7A43C",
"=  c #EBAE2F",
"-  c #E5AC35",
";  c #EBAE30",
":  c #E2AB38",
">  c #E7B036",
",  c #EBB334",
"<  c #ECBF37",
"1  c #ECB43B",
"2  c #EDBF38",
"3  c #B8964D",
"4  c #B89A4F",
"5  c #A48C5A",
"6  c #AE945C",
"7  c #B89A50",
"8  c #B29455",
"9  c #BAB85F",
"0  c #878663",
"q  c #958564",
"w  c #988766",
"e  c #90876C",
"r  c #9F8F6D",
"t  c #9E8C66",
"y  c #99986D",
"u  c #808273",
"i  c #82827D",
"p  c #8B8C7D",
"a  c #8B8572",
"s  c #948971",
"d  c #939275",
"f  c #919178",
"g  c #9F957F",
"h  c #A09F6D",
"j  c #AE996E",
"k  c #B79D67",
"l  c #B89D67",
"z  c #B09A6E",
"x  c #A79776",
"c  c #A79876",
"v  c #A89976",
"b  c #A1967D",
"n  c #AAA964",
"m  c #A4A265",
"M  c #B0AE64",
"N  c #B5B361",
"B  c #BDBB63",
"V  c #B8B669",
"C  c #A6A573",
"Z  c #B2A577",
"A  c #B8B878",
"S  c #C69C45",
"D  c #C19B4F",
"F  c #CEA245",
"G  c #CCA74A",
"H  c #D1A341",
"J  c #C6A256",
"K  c #C4A15A",
"L  c #D0AF51",
"P  c #D8BF67",
"I  c #C5AF72",
"U  c #BEC07F",
"Y  c #CECC59",
"T  c #DDDB59",
"R  c #E6CE47",
"E  c #EED343",
"W  c #EDC658",
"Q  c #EEC95C",
"!  c #EED259",
"~  c #EFEC4F",
"^  c #F0EB4E",
"/  c #E7E452",
"(  c #E8E553",
")  c #EFEC51",
"_  c #EFEE5C",
"`  c #E8E65D",
"'  c #F0ED55",
"]  c #F0EE5B",
"[  c #C2C163",
"{  c #C9C769",
"}  c #D5D361",
"|  c #EECF67",
" . c #EBCE6D",
".. c #EFD064",
"X. c #F0D26B",
"o. c #F0F06E",
"O. c #7F7F80",
"+. c #838383",
"@. c #878881",
"#. c #8A8987",
"$. c #8E8E8E",
"%. c #908F8F",
"&. c #939586",
"*. c #969884",
"=. c #93948D",
"-. c #9D9F8C",
";. c #8F8F90",
":. c #949392",
">. c gray61",
",. c #9FA18B",
"<. c #A0A288",
"1. c #A5A88A",
"2. c #ACAE8C",
"3. c #BBBE87",
"4. c #A9AB97",
"5. c #AAAC9F",
"6. c #BCBF94",
"7. c #B7BA93",
"8. c gray63",
"9. c #ACACAB",
"0. c #B3B3B2",
"q. c #BCC095",
"w. c #BFC1A9",
"e. c #C0C39F",
"r. c #CBCF9F",
"t. c #CBD09F",
"y. c #D8DB98",
"u. c #D1D49A",
"i. c #DDE29D",
"p. c #F3F286",
"a. c #F1F388",
"s. c #F2F596",
"d. c #E8EB96",
"f. c #C8CBA2",
"g. c #CED2A0",
"h. c #D7DBA2",
"j. c #D1D4B8",
"k. c #DBE0A4",
"l. c #E2E7A7",
"z. c #E6EAA1",
"x. c #E4E9AA",
"c. c #E8EDAB",
"v. c #EAF0AB",
"b. c #F2F5A6",
"n. c #F5FAA6",
"m. c #F2F8AE",
"M. c #E9EEB4",
"N. c #F2F8B0",
"B. c #F3F9B8",
"V. c #C3C4C2",
"C. c #D4D4D3",
"Z. c #F6FACD",
"A. c #F0F3C5",
"S. c #E0E0DF",
"D. c #F7FBD2",
"F. c #F8FBDD",
"G. c #EEEEEB",
"H. c #F9F7E1",
"J. c #F1F1EF",
"K. c #FBF7EC",
"L. c #FBFBEE",
"P. c #FCFDF7",
"I. c #FCFCFA",
/* pixels */
"O O O X X X X X X X X X X X X X X X X X O.& O.O.;.;.;.;.$.;.;.;.o       X ;.;.;.$.O O O.O.X X X X X X X X X X X X X X X X X O O ",
"+.O O X X X X X X X X X X X X X X X X X O.O.O O.;.;.;.;.;.$.;.;.X       X $.;.;.$.O & O.O.X X X X X X X X X X X X X X X X X O O ",
"+.O O O O O O.#.$.$.#.$.$.$.#.;.$.$.$.$.;.;.;.$.;.$.$.;.;.$.;.;.O.X X X & $.;.;.;.$.$.$.;.$.$.$.#.X         O.O.O.O O O O O X X ",
"O O O O O O +.$.$.$.;.;.$.;.$.;.$.$.$.;.;.;.;.$.$.$.;.$.;.;.;.;.O.X X X O.;.$.;.;.;.$.;.;.;.$.$.;.X       X O.O.O.O O.O.O.+.X X ",
"O O O O O O.+.$.;.$.$.;.$.$.$.;.$.;.$.$.$.;.;.;.$.;.;.;.;.;.;.;.O.X X X O.$.;.;.;.;.;.;.;.;.;.;.$.X         O.O.O.O.O.O.O O.X X ",
"O O.+.O +.O O $.$.;.$.$.$.$.;.$.$.$.;.$.;.;.;.;.;.$.;.;.;.;.;.;.O.X X X O.;.;.;.;.;.;.$.;.;.;.;.;.X       X & i O.O.& O O.& X X ",
"+.O O   X   X O O O.O O.O.O.& C { { { A & O.& & & O.O.& O.O.O.& +.+.+.+.+.O.& O.O.+.#.+.+.#.#.#.+.4.6.6.3.A [ [ [ V O O.O O.O.O ",
"O O O         X X X X X X X X V ~ ) ) Y X X X X X X X X X X X X +.;.;.;.#.X X X X O.O.O O.O.O.O.O.g.m.m.m.a.) ' ' T O O O.O.O.O.",
"O.O.O         X X X X X X X X 9 ~ ~ ~ Y X X X X X X X X X X X X +.;.;.$.+.X X X X O % O O.O.O.& O t.m.N.m.a.~ ~ ) T O O.O.% O O.",
"O.O.X         X X X X X X X X M ~ ~ ~ Y X X X X X X X X X X X X +.;.$.;.+.X X X X +.O.i O.O.O.O.O.g.m.N.m.p.~ ~ ~ T O O O O.% O.",
"O.O O.X X X O X O X O O X O X y B I B m X     X o X O X 1.2.2.2.Z l k k x X X O X O O X o X O X O 1.q.q.q.A 9 9 9 M O o X O O +.",
"O O.+.;.;.;.;.& O O O O & O.O i O.O.& O         O.O.i i z.n.n.n...= = = D O % O O X X X X X X X X X X X X X X X X X X X X X O O ",
"+.O +.:.$.;.$.O O % O.O.O.O.O.O.O.O +.X         O.O.% O z.n.n.n...; = = D O O % O X X X X X X X X X X X X X X X X X X X X X O O ",
"O O +.$.$.$.$.+.+.O.O O.O.O.O.O.O O O O         O.O.O +.z.n.n.n.| = = = D O O O O X X X X X X X X X X X X X X X X X X X X X O % ",
"O O.+.;.$.$.$.+.+.+.+.O O O O O O O O X         O O O O u.i.i.y.P * * * 8 O O O O O X O X O X O O X X X O X X O X O O X O X O O ",
"+.O.+.$.$.$.$.$.$.$.;.X X X X X X X X X X   X X X X X X X X X X X X X X X X X X X ;.;.;.$.$.;.;.;.;.;.:.;.$.$.$.$.$.$.$.$.$.    ",
"O O +.;.;.;.;.;.;.$.%.X X X X X X X X X X X X X X X X X X X X X X X X X X X X X O $.;.;.;.=.%.%.$.;.;.;.;.$.;.;.$.;.;.;.;.$.    ",
"% O +.$.$.;.;.;.$.;.$.O X X X X X X X X X X X X X X X X X X X X X X X X X X X X X $.;.;.$.$.$.%.;.;.;.;.;.;.$.$.;.;.;.:.;.;.    ",
"O +.+.:.$.$.$.$.$.$.;.X X X X X X X X X O X X O X O o o X X X X X X X X X X X X O :.:.:.:.:.:.:.=.=.$.$.;.;.;.;.$.;.;.;.;.;.    ",
"X X X X X O X i O.+.+.O O O O O.O O O >.G.G.G.G.x.x.x.c.i X X X X O O O X       O G.J.J.J.M.c.c.c.,.X X O X X X X X         O & ",
"X X X X X X X O O O.O O.O.O O.O O % % 8.I.I.I.P.m.m.m.m.i X X X X O.O.O.X       O.I.I.I.P.B.m.m.m.<.X X X X X X X X         O O ",
"X X X X X X X O O.O.O.O O.O.O O.+.O.O 8.I.I.I.P.m.m.m.m.p X X X O O.% % X       & I.I.I.P.B.m.m.m.<.X X X X X X X           O O ",
"X X X X X X X O O.O O O O O.O.O.O O % 8.I.I.I.P.m.m.m.m.i X X X O O % % X       O.I.I.I.P.B.m.m.m.1.X X X X X X X X         O O ",
"#.+.#.#.#.+.+.+.O O.O V.C.C.C.j.g.g.t.y.p.p.p.p.o.o.o.o.G S S S t % O.O % X X o p a.a.a.p.! W W W v +.#.#.+.#.+.+.+.+.+.+.+.  X ",
";.;.;.;.;.;.;.O.O.O.O.S.I.I.I.D.m.m.m.s.) ) ~ ~ ~ ~ ~ ~ , = = = 6 O O.O.% O.% O d ) ) ) ~ , = = = j $.;.;.;.;.$.;.;.;.;.;.;.    ",
";.;.$.$.;.;.;.O.& O.O.S.I.I.I.D.m.m.m.s.) ~ ~ ~ ~ ~ ~ ~ < = = = 6 O O.O.% O O +.f ~ ~ ~ ^ , = = = j =.$.;.;.;.$.;.;.;.;.;.;.    ",
";.;.;.$.;.;.;.O.O.O.O.S.I.I.P.Z.m.m.m.s.^ ^ ~ ~ ~ ~ ~ ~ , = ; ; 6 O O.O.O +.O O d ~ ^ ' ^ , = = = z ;.;.;.;.$.$.;.;.;.;.;.;.    ",
"#.+.#.#.+.#.#.O.O.O.O.0.V.j.V.0.q.q.q.3.N 9 9 9 9 9 9 9 7 3 3 7 q O O X O X X X u 9 9 N 9 4 3 3 3 s +.+.+.+.+.+.+.+.#.#.@.@.X X ",
"O.O.O.O.O.O.O.O.O.O O X X X X X X X X X X X X X X X X X X X X X X X X X           X X X X X X X X X X X X X X X X X O.O O.O.O.& ",
"O.O.O.O.O.O.O.O.& O.O O X X X X X X X X X X X X X X X X X X X X X X X X           X X X X X X X X X X X X X X X X X O O.O.O.O.O.",
"O.O.O & O.O.O.& O.O.O.X X X X X X X X X X X X X X X X X X X X X X X X X           X X X X X X X X X X X X X X X X X O.O O.O.O.O.",
"O.O.+.&.&.&.&.d f f d o X X X X X O X o X X X X X X O X X X X X & $.$.$.@.u & o & O X O X X O X O X O o O X O X O O +.+.O.+.+.+.",
"O.O.,.N.m.N.n.' ^ ^ ^ 0       O ;.;.;.#.X X X X O.O.O.O.O.O.O.O.V.I.I.I.H.N.N.N.x.;.;.;.;.;.$.;.$.$.;.%.;.$.;.;.$.=.$.=.$.;.;.$.",
"O.& ,.N.m.m.b.' ^ ^ ^ 0       O ;.;.;.#.X X X X O.O.O.O.O.O.O.O.V.I.I.I.F.N.m.m.l.;.;.;.$.;.;.$.$.;.;.$.$.$.$.$.;.$.$.;.;.;.;.$.",
"O.O.,.N.m.m.b.' ^ ~ ^ &       O.;.;.;.#.X X X X O.O O.O.O.O.O.& V.I.I.I.F.m.m.m.l.;.;.;.=.$.$.$.;.;.;.;.;.;.;.$.;.;.$.$.$.$.$.;.",
"O.O.,.N.N.m.b.) ~ ~ ^ .       X ;.;.;.#.X X X X & O.& O.O O.O.O.V.I.I.I.F.m.m.m.x.;.;.;.$.$.$.=.$.;.;.;.;.;.;.$.;.$.;.$.;.=.$.$.",
"O.O.O.& & & & o & & &   X X X X X X X X X X X X X X X X k.v.v.v. .1 1 1 1 1 < 1 > - - - : $ X X X + X X X X X O X O $.$.;.$.i & ",
"& O.O.X X X X X   + X X X X X X X X X X X X X X X X X X l.m.m.m.| ; ; = = = = = = = ; ; > $ X X X X X X X X X X X O ;.;.;.;.+.O.",
"O.O.X X X X X X X X + X X X X X X X X X X X X X X X X X l.m.m.m.| ; = = = = = = = = = ; ; $ X X X X X X X X X X X X $.$.;.;.+.O.",
"O.O.O.X X X X X X X X X X X X X X X X X X X X X X X X X l.m.m.m.| ; = = = = = = = = = ; ; $ X X X X X X X X X X X O ;.$.;.;.O.O.",
"O.O.O.X O.X O.#.#.#.+.O X X X m Y Y Y V #.#.#.#.#.#.#.#.&.&.*.*.e @ @ @ @ q q q w x x x c @.#.#.#.#.#.#.#.O.O O.O O #.+.+.+.O.O.",
"O.O.O.O.O.O.O.;.;.$.;.X X X X N ) ) ~ } ;.$.;.;.;.$.;.;.X X X X         X X X X O $.$.$.$.;.;.;.;.;.;.;.;.#.O.O.O O O.& O.O.O.O.",
"O.O.O.O.O.O.O.;.;.;.;.O X X X N ) ) ) } ;.$.;.;.$.;.;.;.O X X X           X X X o ;.$.%.;.;.;.;.;.;.;.;.;.#.& O.O O O O.O O.O.O.",
"& O.O.O.& O.O.;.;.;.;.X X X X N ) ) ~ } ;.$.;.$.;.$.$.;.X X X X           X X X O $.%.$.;.;.;.;.;.$.;.;.;.#.O.O O O O O O.O O.O.",
"X X X O.O.O.O.+.#.+.#.O.X O X d n n n C +.+.#.#.+.#.#.+.O X O O % O O O O.+.+.+.+.+.#.#.#.6.f.f.w.I 7 K K j +.#.#.#.#.#.#.#.X X ",
"    X O.O.O.O.O.O.O.O.O.O.& +.O X X X X O.O.O.O.O.O.O.O.O O O O #.%.$.$.%.;.;.$.$.O O.& O.M.m.N.m.Q , , ; J ;.;.;.;.;.;.;.;.    ",
"      O.& O.O.O.O.O.O.O.O.O.O.X X X X X & O.O.O O.O.O.O.O O.O O #.;.;.%.%.%.$.%.$.O.O.O.O.x.N.N.m.Q = = ; J $.$.;.;.$.$.$.;.    ",
"    X O.O.O.O.O.& O.O.O.O.O.O.O X X X X O.O O.O.O.O.O.O.O.& O O +.;.;.%.$.;.$.;.#.O.O.O +.x.N.N.m.Q = = ; J ;.;.$.;.;.$.;.;.    ",
"    X O.& O.O.X O.O.X O.O.X O.X X X X o O O X O O O X O O O O O -.4.4.4.9.9.9.9.9.-.-.-.,.d.s.s.s.! 2 2 < L x v v b @.#.#.#.X   ",
"X O.& X X X X X X X X X X X X X X X X X X X X X X X X X X X X X 6.m.m.m.Z.I.I.I.L.m.m.m.m._ ) ~ ^ ^ ~ ~ ~ E = = = * X X X X O O.",
"O.O.O.X X X X X X X X X X X X X X X X X X X X X X X X X X X X X 6.m.m.m.Z.P.I.I.L.m.m.m.m.] ~ ~ ~ ~ ~ ~ ~ E = = = * X X X X O O.",
"O.O.X X X X X X X X X X X X X X X X X X X X X X X X X X X X X X 6.m.m.m.Z.P.I.P.L.m.m.m.m.] ~ ~ ~ ~ ~ ~ ~ E = = = * X X X X O O.",
"O.O.& X X X X X X X X o & o O o . . . X X X X X X X X X X X X X 7.c.c.v.A.K.K.K.F.b.b.b.b.` / / ( ( ( ( ( R - - - H X X X X O.+.",
"O.O.+.;.;.;.;.X X X X h.B.N.m.X.= = ; F O.O +.O O.O O +.X X X X X X X X 5 = = ; = , , ; > $ X X X O O.O.O.+.O +.O +.:.$.;.$.$.$.",
"O.O.+.;.;.;.;.X X X X h.m.m.m.X.= = = F O.O.O O O O O.O X X X X X X X X 5 = ; ; ; ; ; , > $ X X X X & O.O.O O.O O +.:.$.;.$.%.$.",
"O.O.+.;.;.;.;.X X X X h.m.m.m.X.= = = F +.O +.O O.% % % X X X X X X X X 5 ; ; ; ; , ; , > $ X X X O O.O.O O.O O.O +.$.$.%.%.;.$.",
"O.O.+.;.;.;.;.X X X X h.N.N.N.X.= = = S % % O.O.O +.O O X X X X X X X X 5 = = = , , ; > > $ X X X O O.O & O O O O +.;.;.%.$.;.%.",
"O.O.O.O.+.+.O.O.O O O.#.p p p a # # # $ o X X X X X X X X X X X O O O O % e s e s g b b b $.#.#.#.+.O O.O.O X X X X X O O X +.+.",
"O.O.O.O.& O.O.O.O.& O.X X X X X X X X X X X X X X X X X X X X X o O.O.O.% % % % +.$.$.;.$.$.%.%.;.+.O O.O.O.X X X X X X X X O O ",
"O.& O.O.O.O.O.O.O O.O.X X X X X X X X X X X X X X X X X X X X X X O.O.O.% % O.O.+.;.$.;.$.%.$.$.;.+.O.O O.O X X X X X X X X O O ",
"O.O.O.O.O.O.O.+.O.O.+.X X X X X X X X X X X X X X X X X X X X X O O.O.O % % O O.+.$.$.;.$.$.;.$.;.+.O.O.O.O X X X X X X X X O O ",
"O X X O O.X X X & X o X X X X X       X +.+.+.+.+.+.+.+.O O O X O O O.O.% % O % +.+.+.#.+.O +.O O.O X O X X X X X X O O O O O O ",
"X X X X X X X X X X X X X X X         X $.$.$.=.;.;.;.$.+.O O +.O O i O.+.O +.O O O O O +.X X X X X X X X X X X X X O +.O +.O O ",
"X X X X X X X X X X X X X X X         X $.$.;.;.;.;.;.;.+.O O O O O O O O O.O O O +.O O +.X X X X X X X X X X X X X O.O O O O O "
};
