/* XPM */
static char *result[] = {
/* columns rows colors chars-per-pixel */
"64 64 92 1 ",
"  c #676767",
". c #696768",
"X c #676868",
"o c #696969",
"O c #726D6B",
"+ c #76706C",
"@ c #747474",
"# c #7A7775",
"$ c #7C7975",
"% c #777678",
"& c #7E7E7E",
"* c #817A75",
"= c #8C7F77",
"- c #817E7C",
"; c #8C7F78",
": c #7F807E",
"> c #82817F",
", c #8B837C",
"< c #928176",
"1 c #9F8776",
"2 c #92857B",
"3 c #9A877B",
"4 c #97887B",
"5 c #9D8A7C",
"6 c #A08776",
"7 c #A28C77",
"8 c #AE8E77",
"9 c #A38B7A",
"0 c #AD8E78",
"q c #B08F77",
"w c #B08F78",
"e c #AF9077",
"r c #A7907E",
"t c #AC927F",
"y c #B5947C",
"u c #B9977E",
"i c #BB997F",
"p c #838383",
"a c #8C8681",
"s c #8E8E8E",
"d c #958B84",
"f c #9D8F84",
"g c #938F8D",
"h c #8F908E",
"j c #9E9084",
"k c #94918E",
"l c #9D928B",
"z c #8F8F90",
"x c #939291",
"c c #A28E81",
"v c #A49285",
"b c #AC9382",
"n c #A5968B",
"m c #AB9689",
"M c #B29683",
"N c #B59986",
"B c #BC9980",
"V c #BC9E8B",
"C c #AD9C91",
"Z c #BFA28E",
"A c #AFA094",
"S c #B1A195",
"D c #BBA291",
"F c #B3A49A",
"G c #BEAA9D",
"H c #C29E85",
"J c #C5A38C",
"K c #CBA48A",
"L c #CDA88E",
"P c #C4A591",
"I c #C9A690",
"U c #C7A992",
"Y c #CDAA92",
"T c #C9AF9F",
"R c #D4AD93",
"E c #D8AF94",
"W c #D0AF98",
"Q c #C9B09F",
"! c #D7B094",
"~ c #D8B095",
"^ c #DCB69E",
"/ c #DEB89F",
"( c #C7B0A0",
") c #CCB3A1",
"_ c #D2B6A3",
"` c #D7B9A3",
"' c #DBB9A4",
"] c #DCBBA9",
"[ c #E2BEA7",
"{ c #E0BDA8",
"} c #E1C0A7",
"| c #E3C0AA",
/* pixels */
"&&&@@@@@@@@@@@@@@@@@&&:pzszszsgz@X  &zzhs&&:&@@@@@@@@@@@@@@@@@&&",
"p&&@@%@@@@@@@@@@@@@@::::zzszhzzz@X  $zhzs:&&&%@@@@@@@@@@@@@@@%&:",
"&p&&&&&zspzzsspzssssssszzzzshssh%@@@pzzhsssssspszOooo@::&&&&&&%%",
"&&&&:::zzzzzszzzssshzzsgsgzszszz&@@@pszszssgzszzzOXoo@::&&&:&&@@",
"&&:::p:zszzzsszsshzzzszzzsshzsgz%@@@pszszzszzzzzzOXXo@&:p:>&:&@@",
"&p:::&pzgszzszsszzszszzzszssszsh&@@@:shzzzszzzzzz@ oX@&-&&&&&&@@",
"&:&OO@O%%&&$%&%dmMNc%&%&&%&&&&%&psspp&&%&ppppppppnNVNMbbbf>&:&&&",
"&:%oXXX@@@@@@@@5BBBc@@@@@@@@@@@@sshsp@@@%&p:::::&PEE~KiBBb>:&&&&",
"::%oooo@@@@@@@@5BBBb@@@@@@@@@@@@pzzzp@@@@::::::p>IEE!KBBBb:p&>>&",
":&&o oo@@@@@@@@5BBBc@@@@@@@%@@@@azhzp%@@%:&:::::&KEE!KBBB0::&:&&",
"::&%%$%%%%%%%%%,cccdOO@@%$%%ccccfjjfa%%%&%&%&%$&&cnmb95542%%%&>&",
"::pzzzz:::p:p::>&::%XX X::-&YEEEu8804:p:&@@%@@@@@@@@@@%@@@%@%%:&",
":&pzsss:::::&p&&&:&%XXXO::p:Y!!!uqq83&::&@@@@@@@@@@@@@@@@@@@@@&&",
">>pzzss&:::&:&-&:&:%.XXo::::R!!!u8qq5&::%@@@@@@@@@@@@@@@@@@%@@&:",
">&pzszspppp&&&&&&&:%oo.o&&&&ZJJPt7772&&$&%&%%%%%$%%%%$%%%%%%%%&&",
"&&pzzszzzzs%@@@@@@@@@%@@@@@@@%@@@@%@@@@@%zssxhxhzzhhzzxzzxzzzs  ",
"&&pzzsszzzz%%@@@@@@@@@@@@@@@@@@@@@@@@@@@%zshzzsszhzhszsszhhzss  ",
"&ppzszzszzz%@@@@@@@@@@@@@@@@@@@@@@@@@@@@$szksgzszzzhsszhszzsks  ",
"&&pzsssszzz&@@%@@@@@$%%$$$$$+@@@@@@@@@@@&xxxxxkkksssssszssssssXo",
"%@@%@%@&&p&&&&&&&&&l]`]`LRLR$@@@%&&&@XXo$]]]]!EWW,%@%@%%@@oooo&&",
"@@@@@@@:&&p&p&>&::-l||||EEEE$@@@&&::@XXX*|||[~~EE,@@@@@@@@.XXo&:",
"@@@@@@@&&&&&&&&&:::l|[||EEEE$@@@&:::@XXX*|||[~EEE;@@@@@@@@XXXo::",
"@@@@@@@:&pp&&&>>::&l|}|}EE~~$@@@&&::@XXo*|||[EEEE,@@@%@@@@XXXo::",
"spspszp:&&&G)))DbMMMJJJJHHJH9666>&p:&&$$,JJJJuuuydpsspsppppsppOO",
"zsszzzs&&&>_|||WBBBBuBBBBBBBq888;:&:&>>&,BBBBy0qwdzgzsgzzxzzzs  ",
"zzzgzzs&&>&_|||WBBBBBBBBBuBBe88e,::&:>&&aBBBBeq8wkhsszzzzzzzssX ",
"szzzzzzp&&:_{{{YBBBBBBBBHuBB88882:&&&&&p,BBBB8880ksszszzzzzzssXX",
"psppspp&&&pnCCCf333333333333<<<<-%&%%@@@%5454<<<<,pppp:ppppspp@@",
"::>&p&&>p&&%%@@@@@@@@@@@@@@@@@@@@@@@O  Xo%@@@@@@@@@@@@@@@%&&::p&",
"::&&&&&>&&&%@@@@@@@%@@@@@@@@@@@@@@@@@ XXo@@@@@@@@@@@@@@@@%&p:::&",
"p&:&>>&&:>>%@@@@@@O%@@@@@@@@@@@@@@%@o.XXo@@@@@@@@@@@@@@@@%&&&&&p",
"&&pddddaaaa%@@O%&&%%@@@@@%%%@%%#;aaa;**-$&$&%%&$&%&%&%&&%&pppppp",
":-dEEERHBBB+oXo:zzzp@@@@&>:&&:::([||[EEEYzzzgzzsszhsssshzssszzhz",
":&dEEEEBBBBO oo&zzzs@@@@&>>&p:::){||[EEEUzzsszszzsgzsszsszxsssgs",
"::4EEERBBBBO o &zzzp@@@@&>p&&&&-([{{/EEEUzzszzsssszzsssshszhhzzz",
"p:dELRYMBBBOooo&sssp@@@@&&&:>>>p({[[^RRRPggggsssssssssssssszzsss",
"&:&@@@@@@@@@@@@@@@@@@@@@%@@@REEEy8qqqqqqq8qw0#@@@@@@@@@@@&gsss:p",
"&&&@@@@@@@@@@@@@@@@@@@@@@@@@YEEEuq88qqqq8qq80@@@@@@@@@@@@%zzss:&",
":&&@@@@@@@@@@@@@@@@@@@@@@@@@YEEEuq8888q8qqqq7#@@@@@@@@@@@%zszz::",
"&p%@@@@@@@@@@@@@@@@@@@@@@@@@REEEuq888888qqqq7#@@@@@@@@@@@:sszz::",
":>p&&&&spzs%@@@3bMMczsspzssp&-**+OOO@$$$-ggkgsssgpsssp&:::pp&p&>",
"&&&&&&&zzzs%@@@5BuBMzzzzzzss%@@@..ooO%@@%hssszsszsszzp::::&&&&&&",
"&&&&&&pzzzz&@@@3BBBMzgzzzzzz%@@@oo.oo@@@$zhgszgzzzzzzp:::&&&&p:>",
"p&:>:&&zzzz%@@@3BBBMzzzzzzzz%@@@o  .o@@@&szzzzzzzzzzss:$p&&p&&&&",
"@@@&>&ppppp&%&&-;;;;pppppppp&%&&:ppppppspppppGPDPbccvdssspspspO@",
" Xop&&&&p&&p:::%@@@%:::p&&p&&&&:szgzzzzhsp::pREEEy8q0csszzzzzs  ",
"  op&&p&&:&&:::%@@@%>>::&pp&:&:&szzzzzzzs&&:aREEEuqq0fszzzzzzsXX",
"  O&&p&&&>&>>::%@@%%&:&:&&&:&::&pzzgzzgzs&&&-REEEy888fzsszzzzzXX",
"@@@%%%&%&&%$&%&%@@@@$%$&$&%&%&%&nCCCAGFFSnvvnKLLLuyyybfffdpppp@O",
"&&&@@@@@@@@@@@@@@@@@%@@@@@@@@@@@VEEE'|{|[E!EEHuiBiBuBy88q3@@@@::",
"p&&@@@@@@@@@@@@@@@@@@@@@@@@@@@@@VEEE/[||[EEERHBBBBiBByw8q6@@@@::",
"&:%@@@@@@@@@@@@@@@@@@@@@@@@@@@@@VEEE/|[[[EEERiBiBiBBBw80q1@@@%&p",
"&&&%%%%@@@@*&*-*$$*#@@%@@@%%@@@@NIIIW'''^LRLLMyMMMMMMbb993%%%%p:",
"p&pzzzs%@@@P!E~B0085p&p&::::%@@@@@#@<wqqq8qq8#@@@-::--&>>pzzzzzz",
"&ppzzzs@@@@I!E~H8q89&&&&::::@@@@@@@@=q88q0q80%@@@&:::&:&>pgzzzzz",
"&&pzzzs@@@@KE!!H8q85&>&p::::@@@@@@@@<8qq8q8q7$@@@$::::>>:pszszgz",
"&:pzsss%@@@JRRRB8003-&>&&&&&@@@@@@%@;00000000%@@%&:&::&::pssshss",
":&&pp:p:&>&--$*%%#%#@@@@%@@@@@@@&:p:->>>aggggssszp&&:%%%@%@%%%:p",
"&p::&&:&:&&%@@@@@@@@@@@@@@@@@@@@&:::>&::pszzsszzzp:>&%@@@@@@@@&:",
"&&:::&&&&p&@@@@@@@@@@@@@@@@@@@@@$:::>>&:pzzsssgzzp::p%@@@@@@@@:&",
"&p&::::p&>:@@@@@%@@@@@@@@@@@@@@@&&&&&&&&pssszszzzp:::%@@@@@@@@::",
"%%%%%@%%%%%@@@@oo.o@pspppssp&&&&&&p&&>&p&pppp&&%%%%%%@@@@%&&&&::",
"@@@@@@@@@@@@@@@oXoo@zzsszzzzp&&&&&p&&&&&&p::&@@@@@%@@@@@@%&&&&::",
"@@@@@@@@@@@@@@@@oXX@zzzzzzzz&&p&p&&&>&p&::::&@@@@@@@@@@@@%>&>&p:"
};
