/* XPM */
static char *result[] = {
/* columns rows colors chars-per-pixel */
"64 64 12 1 ",
"  c #000001",
". c #0037EB",
"X c #0035E3",
"o c #01061B",
"O c #0032D3",
"+ c #011D78",
"@ c #011556ff",
"# c #003AF8",
"$ c #012EC0",
"% c #0129AD",
"& c #012496",
"* c #010D36",
/* pixels */
"@+++++++&O..X+o    *+++++++++++@           ooo                  ",
"%$OOOOOOX..X%      +$OOOOOOOOO%&o                               ",
"$X.........X&      &X.........X%o                              o",
"$X.........O&      &X.........X%o                              o",
"$X.........O&      &X.........X%o                              o",
"%##........X&o     +###########%                                ",
"o+$.........$+@o    @+++++++++@o                       *@@@*o   ",
"  oO.........O%+                                      @%%%%%@   ",
"   %X.........X%o                                     +O...O+   ",
"   &X.........X%o                                     +X...O&   ",
"   &X.........X%o                                     &X...O&   ",
"   &########..X%*                                     +.#..X&   ",
"   *%$$$$$$O...$+*               ooooo                o&X..X%@o ",
"           o%..X$&+o            +&&&&+o                 o$..X%&@",
"            @X...O%*           o%OXXO$@                  +X...O&",
"o           @O....$*           o$X...$@                  @O...X%",
"o           *O...X$*           o$X...$@                  @O...X%",
"            @O....O*           o$....$@                  @O...X$",
"            o$####$o            &##..O+o                o+O..#.&",
"             o@@@@o   o@@@@@o    @%..X%+@o      *@@@@@@@+$X.X%@ ",
"                      @%$$$%+     o$..X$%@      &%$$$$$$OX.X$o  ",
"                      +O...O&      &X...O+     o%X.....#...X&   ",
"                      &X...O&      &X...O+     o$X.........O&   ",
"                      +X...O&      &X...O+     o$X.........O&   ",
"                      &X...X&o    o%X..#.+      $###########&   ",
"o**********o        *+$....X$+****+$...$+o      *&%%%%%%%%%&o   ",
"+&&&&&&&&&&&@      @&$X.....X$%&&%$X.X%o                        ",
"%OXX.X.X.XX$+      &O...........X....O@                        o",
"$X.........X&      &X................O@                        o",
"$X.........O&      &X................$@                        o",
"O.#########X&      &X...###..........O@                         ",
"+OXXXXXXXXXO@     @%X..#XXX##........O&o          ooooooooo     ",
" o********oo    @+%O..O@o**@$.........$&+o      @+++++++++++o   ",
"               o&$X..X+     @X.........O%@     o&$OOOOOOOOO%+   ",
"               o%X...O@     @O..........O+     o%X.........O&   ",
"               o$X..XO@     *O..........O+     o$X.........O&   ",
"               o%X...O@     *O..........O+     o$X.........X&   ",
"               @$....O+     oO##########.@      %##........X&o  ",
"       *@@@@@@@&O....X%+*    *++++++++++@       o+$.........$+@o",
"      @%%%%%%%$X......X$%@                        o$.........O%+",
"o     +O.....#..........O+                         %X.........O%",
"o     +X................O+                         &X.........X%",
"o     &X................O+                         &X.........X%",
"o     +########..........+                         &########..X%",
"+*    o&$$$$$$O.#......O&o    oooo        ooooo    *%$$$$$$X.#.$",
"$&+o          o+......%o    o+&&&++o     o+&&&+@           o%..X",
".O%*           oO....O@     *$OXXO%*     @$OXXO&o           @X..",
"..$*           o$X...O@     *O....$*     @O...X%o           @O..",
".X$*           o$X...O@     @O...X$*     @O...X%o           *O..",
"..$*           o$X...O@     *O....$*     @X...X$o           @O..",
"..$+           @$...#O*     +O....O+     *O####&            o$##",
"..X%+@@@@@@@@@+%X..O+o    @+%X....X%+*    o@@@@    o@@@@@o   o@$",
"O..XO$$$$$$$$$OX..X+     *%$X......X$&*            +%$$%%@     *",
"$................XO*     @O..........$@            &X...O+     o",
"$X...............X$*     @O.........XO@            &X...O+     o",
"$X................$*     @O..........O@            &X...O+     o",
"$########........#O*     *.##########X*            &####.+      ",
"*&%%%%%%O.......X%@       +%%%%%%%%%%+    o****    o&%%%+o      ",
"        o%.....X+                        o&&&&&+                ",
"         @X...X$o                        @$XXXO&o               ",
"         @O...X%o                        @O...X%o               ",
"         @O...X%o                        @O...X%o               ",
"         @O...X$o                        @X.##.$o               ",
"        *&O...X+                         o$XXXX+                "
};
