/* XPM */
static char *result[] = {
/* columns rows colors chars-per-pixel */
"64 64 42 1 ",
"  c gray50",
". c gray49",
"X c #747474",
"o c #777777",
"O c #818181",
"+ c gray56",
"@ c gray45",
"# c #686868",
"$ c #7B7B7B",
"% c gray55",
"& c #808080",
"* c #7E7E7E",
"= c gray46",
"- c #8D8D8D",
"; c #8E8E8E",
": c gray48",
"> c gray44",
", c DimGray",
"< c #767676",
"1 c gray51",
"2 c #7C7C7C",
"3 c #6F6F6F",
"4 c gray47",
"5 c #868686",
"6 c #888888",
"7 c #848484",
"8 c #797979",
"9 c #8B8B8B",
"0 c gray53",
"q c gray43",
"w c #6C6C6C",
"e c #898989",
"r c #909090",
"t c #727272",
"y c #838383",
"u c gray42",
"i c #6A6A6A",
"p c #6D6D6D",
"a c #676767",
"s c gray54",
"d c #717171",
"f c gray52",
/* pixels */
"  .XXXXXXXXXXXXXXXXo   O++++++++@###$+++%&  *=XXXXXXXXXXXXXXX=  ",
"  .XXXXXXXXXXXXXXXXo   O++++++++@###$+++-&  *=XXXXXXXXXXXXXXX=  ",
"   *  &%--%%%%%%%%%-+;;;++++++++:X@@O++++--;;---->,,,X*******.<<",
"      O;++++++++++++++++++++++++$XXX1++++++++++++>###X       *XX",
"      O;++++++++++++++++++++++++$XXX1++++++++++++>###=       *XX",
"      O+++++++++++++++++++++++++$XXX1++++++++++++>###=       *XX",
"  2333>$22222224XXX<22222222222256661222.77777777$88819990    22",
"  :###,XXXXXXXXq###wXXXXXXXXXXXXer++1XXX<            6+++9      ",
"  :###,XXXXXXXXq###wXXXXXXXXXXXX6+++1XXX<            6+++9      ",
"  :###,XXXXXXXXq###wXXXXXXXXXXXX6+++1XXX<            6+++9      ",
"  *888888888888<@@@t>>>>8888&OOO0666&888:$$$$$$$$$$$$ 777O$$$$  ",
"  y+++-&           8###u    ;+++y       .XXXXXXXXXXXXXXXXXXXX=  ",
"  y+++;&           8###u    ;+++y       .XXXXXXXXXXXXXXXXXXXX=  ",
"  y+++;&           8###u    ;+++y       .XXXXXXXXXXXXXXXXXXXX=  ",
"  y+++;y11O*.......4iiip....9999O.......28$::8888888888888888:$$",
"  y++++++++8XXXXXXX<=XXXXXX<=XXXXXXXXXXX:;+++++++++++++++++++%##",
"  y++++++++8XXXXXXXXXXXXXXXXXXXXXXXXXXXX$++++++++++++++++++++%a#",
"  y++++++++8XXXXXXXXXXXXXXXXXXXXXXXXXXXX$++++++++++++++++++++%a#",
"**1----;;;;8========XXXXXXXXXXXX====X@@@$;;;;;;;;---------%%%sii",
"===ooo4&OOO *******$XXXXXXXXXXXX$***X,,,3OOOOOOOO8oooooooXwwwp..",
"XXXXXX=            2XXXXXXXXXXXX2   X###q        oXXXXXXXd###i  ",
"XXXXXX=            2XXXXXXXXXXXX2   X###q        oXXXXXXXd###i  ",
"XXXXXX=            2XXXXXXXXXXXX2   X###q        oXXXXXXXd###i  ",
"eeeeee6            2XXX<eeeeeeee1   .:::$        0eeeeeee60057qq",
"++++++;&           2XXXo++++++++y                -+++++++++++%##",
"++++++;&           2XXXo++++++++y                -+++++++++++%##",
"++++++;&           2XXXo++++++++y                -+++++++++++%##",
"0000000&   $:::::::8XXX=111111112:::oXXX<::::::::O1yyyyyy70005XX",
"           <XXXXXXX=XXXXXXXXXXXXXXXX3###uXXXXXXXXXXXXXXXXo      ",
"           <XXXXXXXXXXXXXXXXXXXXXXXX3###uXXXXXXXXXXXXXXXXo      ",
"           <XXXXXXXXXXXXXXXXXXXXXXXX3###iXXXXXXXXXXXXXXXXo      ",
"  &yyyyyyyy=ttto:::4XXXXoooooooooooo=ttt@$$$$$$$$$$$$$$$$.yyyyyy",
"  y++++++++q###*+++0XXX=            6+++++++++++++++++++++++++++",
"  y++++++++q###*+++0XXX=            6+++++++++++++++++++++++++++",
"  y++++++++q###*+++0XXX=            6+++++++++++++++++++++++++++",
"  y;;;;;;;;3,,,*;;;5XXX=****    **.*0;;;;;;;;+++;;;;;;;;;;++++;;",
"  .XXXXXXXXXXXXXXXXXXXXXXXXX*   3,##X       *=XXXXXXXXXXX2r++;&&",
"  .XXXXXXXXXXXXXXXXXXXXXXXXX*   q###X       *=XXXXXXXXXXX2+++;  ",
"  .XXXXXXXXXXXXXXXXXXXXXXXXX*   q###X       *=XXXXXXXXXXX2+++;  ",
"  .XXXXXXXXXXXXXXXXXXXXXXXXX*   q###X       *=XXXXXXXXXXX$+++;  ",
"   *** %%%%8XXXXXXX$%%%%%%%%4=<<w###3<<<:----%%%%%%%%f*** OOOO  ",
"      O;+++8XXXXXXX2++++++++<XXXu###3XXX:++++++++++++0          ",
"      O;+++4XXXXXXX2++++++++<XXXu###3XXX:++++++++++++0          ",
"      O;+++8XXXXXXX.++++++++<XXXu###3XXX:++++++++++++0          ",
">>X   &7777.2$$oXXX:7777777f2222Oyyyf0000f777777777770sssssss6>>",
"##p            8XXXo            9+++++++-&           6+++++++%##",
"##p            8XXXo            9+++++++%            6+++++++%##",
"##p            8XXXo            9+++++++%            6+++++++%##",
"@@X$$$$$$$$$$$$oXXX<$$$$$$$$$$$$e+++++++9$$$$$$$$$$$$&fffffffydd",
"&&2XXXXXXXXXXXXXXXXX=XXXXXXXXXXX6+++++++eXXXXXXXXXXXXXXXXXXXX=  ",
"  .XXXXXXXXXXXXXXXXXXXXXXXXXXXXXe+++++++sXXXXXXXXXXXXXXXXXXXX=  ",
"  .XXXXXXXXXXXXXXXXXXXXXXXXXXXXXe+++++++sXXXXXXXXXXXXXXXXXXXX=  ",
"  .4444XXXX4844=tttX<<<<<<<<XXXXf9999999fttttXXXX=<<<<<<<o888:11",
"  y+++%oXXXs+++8,,,>        =XXXXXXXXXXXt,,,iXXXX.       y++++++",
"  y+++-oXXX9+++8###3        =XXXXXXXXXXXt,##,@XXX.       7++++++",
"  y+++-oXXX9+++8###3        =XXXXXXXXXXX@,##,@XXX.       7++++++",
"  y;;;%o===s---8,,,>        =XXXX=======Xuuuw=<<<.       y;;;;;;",
"  &OOOO*  *8ooo=@@@X<<<<<<<<XXXX$*******O9%99----1   $<==<ooo4OO",
"           <XXXXXXXXXXXXXXXXXXXX2       y++++++++y   :XXXXXXX=  ",
"           <XXXXXXXXXXXXXXXXXXXX2       y++++++++y   :XXXXXXX=  ",
"           <XXXXXXXXXXXXXXXXXXXX2       y++++++++y   :XXXXXXX=  ",
"44444444444=XXX3wwwX6e666666*...*       Oyy7y.2..4ooo=XXX<....  ",
"XXXXXXXXXXXXXXXq###X++++++++O               *=XXXXXXXXXXXo      ",
"XXXXXXXXXXXXXXXq###X++++++++&               *=XXXXXXXXXXXo      "
};
